<svg xmlns="http://www.w3.org/2000/svg" width="1200" height="630" viewBox="0 0 1200 630" role="img" aria-labelledby="title desc">
  <title id="title">Individual Pocket Runcard</title>
  <desc id="desc">A small high-contrast individual card for social profiles.</desc>
  <defs></defs>

<rect x="0" y="0" width="1200" height="630" rx="0" fill="#ffd84d" stroke="none" stroke-width="1" opacity="1"/>
<rect x="64" y="58" width="1072" height="514" rx="24" fill="#111111" stroke="#111111" stroke-width="2" opacity="1"/>
<rect x="92" y="86" width="284" height="458" rx="16" fill="#ffd84d" stroke="none" stroke-width="1" opacity="1"/>
<text x="234" y="238" fill="#111111" font-family="SFMono-Regular, ui-monospace, Consolas, Liberation Mono, monospace" font-size="118" font-weight="950" text-anchor="middle">RC</text>
<text x="234" y="302" fill="#111111" font-family="SFMono-Regular, ui-monospace, Consolas, Liberation Mono, monospace" font-size="28" font-weight="950" text-anchor="middle">individual</text>
<g transform="translate(180 350)">
  <rect x="0" y="0" width="108" height="108" rx="8" fill="#ffd84d" stroke="#111111" stroke-width="2" opacity="1"/>
  <rect x="10.8" y="10.8" width="20.855" height="2.979" fill="#111111"/>
  <rect x="37.614" y="10.8" width="2.979" height="2.979" fill="#111111"/>
  <rect x="43.572" y="10.8" width="2.979" height="2.979" fill="#111111"/>
  <rect x="49.531" y="10.8" width="2.979" height="2.979" fill="#111111"/>
  <rect x="58.469" y="10.8" width="2.979" height="2.979" fill="#111111"/>
  <rect x="67.407" y="10.8" width="2.979" height="2.979" fill="#111111"/>
  <rect x="76.345" y="10.8" width="20.855" height="2.979" fill="#111111"/>
  <rect x="10.8" y="13.779" width="2.979" height="2.979" fill="#111111"/>
  <rect x="28.676" y="13.779" width="2.979" height="2.979" fill="#111111"/>
  <rect x="34.634" y="13.779" width="2.979" height="2.979" fill="#111111"/>
  <rect x="40.593" y="13.779" width="8.938" height="2.979" fill="#111111"/>
  <rect x="52.51" y="13.779" width="8.938" height="2.979" fill="#111111"/>
  <rect x="67.407" y="13.779" width="5.959" height="2.979" fill="#111111"/>
  <rect x="76.345" y="13.779" width="2.979" height="2.979" fill="#111111"/>
  <rect x="94.221" y="13.779" width="2.979" height="2.979" fill="#111111"/>
  <rect x="10.8" y="16.759" width="2.979" height="2.979" fill="#111111"/>
  <rect x="16.759" y="16.759" width="8.938" height="2.979" fill="#111111"/>
  <rect x="28.676" y="16.759" width="2.979" height="2.979" fill="#111111"/>
  <rect x="37.614" y="16.759" width="17.876" height="2.979" fill="#111111"/>
  <rect x="58.469" y="16.759" width="2.979" height="2.979" fill="#111111"/>
  <rect x="64.428" y="16.759" width="2.979" height="2.979" fill="#111111"/>
  <rect x="70.386" y="16.759" width="2.979" height="2.979" fill="#111111"/>
  <rect x="76.345" y="16.759" width="2.979" height="2.979" fill="#111111"/>
  <rect x="82.303" y="16.759" width="8.938" height="2.979" fill="#111111"/>
  <rect x="94.221" y="16.759" width="2.979" height="2.979" fill="#111111"/>
  <rect x="10.8" y="19.738" width="2.979" height="2.979" fill="#111111"/>
  <rect x="16.759" y="19.738" width="8.938" height="2.979" fill="#111111"/>
  <rect x="28.676" y="19.738" width="2.979" height="2.979" fill="#111111"/>
  <rect x="49.531" y="19.738" width="8.938" height="2.979" fill="#111111"/>
  <rect x="64.428" y="19.738" width="5.959" height="2.979" fill="#111111"/>
  <rect x="76.345" y="19.738" width="2.979" height="2.979" fill="#111111"/>
  <rect x="82.303" y="19.738" width="8.938" height="2.979" fill="#111111"/>
  <rect x="94.221" y="19.738" width="2.979" height="2.979" fill="#111111"/>
  <rect x="10.8" y="22.717" width="2.979" height="2.979" fill="#111111"/>
  <rect x="16.759" y="22.717" width="8.938" height="2.979" fill="#111111"/>
  <rect x="28.676" y="22.717" width="2.979" height="2.979" fill="#111111"/>
  <rect x="34.634" y="22.717" width="2.979" height="2.979" fill="#111111"/>
  <rect x="52.51" y="22.717" width="2.979" height="2.979" fill="#111111"/>
  <rect x="61.448" y="22.717" width="8.938" height="2.979" fill="#111111"/>
  <rect x="76.345" y="22.717" width="2.979" height="2.979" fill="#111111"/>
  <rect x="82.303" y="22.717" width="8.938" height="2.979" fill="#111111"/>
  <rect x="94.221" y="22.717" width="2.979" height="2.979" fill="#111111"/>
  <rect x="10.8" y="25.697" width="2.979" height="2.979" fill="#111111"/>
  <rect x="28.676" y="25.697" width="2.979" height="2.979" fill="#111111"/>
  <rect x="37.614" y="25.697" width="8.938" height="2.979" fill="#111111"/>
  <rect x="49.531" y="25.697" width="2.979" height="2.979" fill="#111111"/>
  <rect x="61.448" y="25.697" width="2.979" height="2.979" fill="#111111"/>
  <rect x="67.407" y="25.697" width="2.979" height="2.979" fill="#111111"/>
  <rect x="76.345" y="25.697" width="2.979" height="2.979" fill="#111111"/>
  <rect x="94.221" y="25.697" width="2.979" height="2.979" fill="#111111"/>
  <rect x="10.8" y="28.676" width="20.855" height="2.979" fill="#111111"/>
  <rect x="34.634" y="28.676" width="2.979" height="2.979" fill="#111111"/>
  <rect x="40.593" y="28.676" width="2.979" height="2.979" fill="#111111"/>
  <rect x="46.552" y="28.676" width="2.979" height="2.979" fill="#111111"/>
  <rect x="52.51" y="28.676" width="2.979" height="2.979" fill="#111111"/>
  <rect x="58.469" y="28.676" width="2.979" height="2.979" fill="#111111"/>
  <rect x="64.428" y="28.676" width="2.979" height="2.979" fill="#111111"/>
  <rect x="70.386" y="28.676" width="2.979" height="2.979" fill="#111111"/>
  <rect x="76.345" y="28.676" width="20.855" height="2.979" fill="#111111"/>
  <rect x="37.614" y="31.655" width="5.959" height="2.979" fill="#111111"/>
  <rect x="49.531" y="31.655" width="5.959" height="2.979" fill="#111111"/>
  <rect x="58.469" y="31.655" width="11.917" height="2.979" fill="#111111"/>
  <rect x="10.8" y="34.634" width="2.979" height="2.979" fill="#111111"/>
  <rect x="16.759" y="34.634" width="2.979" height="2.979" fill="#111111"/>
  <rect x="22.717" y="34.634" width="2.979" height="2.979" fill="#111111"/>
  <rect x="28.676" y="34.634" width="2.979" height="2.979" fill="#111111"/>
  <rect x="37.614" y="34.634" width="2.979" height="2.979" fill="#111111"/>
  <rect x="43.572" y="34.634" width="5.959" height="2.979" fill="#111111"/>
  <rect x="52.51" y="34.634" width="5.959" height="2.979" fill="#111111"/>
  <rect x="61.448" y="34.634" width="2.979" height="2.979" fill="#111111"/>
  <rect x="70.386" y="34.634" width="2.979" height="2.979" fill="#111111"/>
  <rect x="82.303" y="34.634" width="2.979" height="2.979" fill="#111111"/>
  <rect x="91.241" y="34.634" width="2.979" height="2.979" fill="#111111"/>
  <rect x="10.8" y="37.614" width="2.979" height="2.979" fill="#111111"/>
  <rect x="19.738" y="37.614" width="2.979" height="2.979" fill="#111111"/>
  <rect x="25.697" y="37.614" width="2.979" height="2.979" fill="#111111"/>
  <rect x="37.614" y="37.614" width="2.979" height="2.979" fill="#111111"/>
  <rect x="43.572" y="37.614" width="5.959" height="2.979" fill="#111111"/>
  <rect x="52.51" y="37.614" width="5.959" height="2.979" fill="#111111"/>
  <rect x="61.448" y="37.614" width="17.876" height="2.979" fill="#111111"/>
  <rect x="85.283" y="37.614" width="2.979" height="2.979" fill="#111111"/>
  <rect x="94.221" y="37.614" width="2.979" height="2.979" fill="#111111"/>
  <rect x="10.8" y="40.593" width="5.959" height="2.979" fill="#111111"/>
  <rect x="22.717" y="40.593" width="2.979" height="2.979" fill="#111111"/>
  <rect x="28.676" y="40.593" width="2.979" height="2.979" fill="#111111"/>
  <rect x="43.572" y="40.593" width="2.979" height="2.979" fill="#111111"/>
  <rect x="49.531" y="40.593" width="2.979" height="2.979" fill="#111111"/>
  <rect x="61.448" y="40.593" width="2.979" height="2.979" fill="#111111"/>
  <rect x="76.345" y="40.593" width="5.959" height="2.979" fill="#111111"/>
  <rect x="88.262" y="40.593" width="8.938" height="2.979" fill="#111111"/>
  <rect x="22.717" y="43.572" width="5.959" height="2.979" fill="#111111"/>
  <rect x="31.655" y="43.572" width="2.979" height="2.979" fill="#111111"/>
  <rect x="40.593" y="43.572" width="8.938" height="2.979" fill="#111111"/>
  <rect x="55.49" y="43.572" width="2.979" height="2.979" fill="#111111"/>
  <rect x="61.448" y="43.572" width="2.979" height="2.979" fill="#111111"/>
  <rect x="70.386" y="43.572" width="2.979" height="2.979" fill="#111111"/>
  <rect x="79.324" y="43.572" width="2.979" height="2.979" fill="#111111"/>
  <rect x="91.241" y="43.572" width="2.979" height="2.979" fill="#111111"/>
  <rect x="10.8" y="46.552" width="2.979" height="2.979" fill="#111111"/>
  <rect x="16.759" y="46.552" width="14.897" height="2.979" fill="#111111"/>
  <rect x="34.634" y="46.552" width="14.897" height="2.979" fill="#111111"/>
  <rect x="58.469" y="46.552" width="5.959" height="2.979" fill="#111111"/>
  <rect x="67.407" y="46.552" width="11.917" height="2.979" fill="#111111"/>
  <rect x="85.283" y="46.552" width="2.979" height="2.979" fill="#111111"/>
  <rect x="91.241" y="46.552" width="5.959" height="2.979" fill="#111111"/>
  <rect x="19.738" y="49.531" width="5.959" height="2.979" fill="#111111"/>
  <rect x="31.655" y="49.531" width="5.959" height="2.979" fill="#111111"/>
  <rect x="46.552" y="49.531" width="5.959" height="2.979" fill="#111111"/>
  <rect x="55.49" y="49.531" width="8.938" height="2.979" fill="#111111"/>
  <rect x="76.345" y="49.531" width="2.979" height="2.979" fill="#111111"/>
  <rect x="85.283" y="49.531" width="2.979" height="2.979" fill="#111111"/>
  <rect x="94.221" y="49.531" width="2.979" height="2.979" fill="#111111"/>
  <rect x="13.779" y="52.51" width="2.979" height="2.979" fill="#111111"/>
  <rect x="25.697" y="52.51" width="5.959" height="2.979" fill="#111111"/>
  <rect x="43.572" y="52.51" width="2.979" height="2.979" fill="#111111"/>
  <rect x="52.51" y="52.51" width="8.938" height="2.979" fill="#111111"/>
  <rect x="64.428" y="52.51" width="2.979" height="2.979" fill="#111111"/>
  <rect x="70.386" y="52.51" width="2.979" height="2.979" fill="#111111"/>
  <rect x="76.345" y="52.51" width="2.979" height="2.979" fill="#111111"/>
  <rect x="85.283" y="52.51" width="2.979" height="2.979" fill="#111111"/>
  <rect x="91.241" y="52.51" width="5.959" height="2.979" fill="#111111"/>
  <rect x="13.779" y="55.49" width="8.938" height="2.979" fill="#111111"/>
  <rect x="25.697" y="55.49" width="2.979" height="2.979" fill="#111111"/>
  <rect x="31.655" y="55.49" width="2.979" height="2.979" fill="#111111"/>
  <rect x="43.572" y="55.49" width="2.979" height="2.979" fill="#111111"/>
  <rect x="49.531" y="55.49" width="5.959" height="2.979" fill="#111111"/>
  <rect x="58.469" y="55.49" width="8.938" height="2.979" fill="#111111"/>
  <rect x="70.386" y="55.49" width="8.938" height="2.979" fill="#111111"/>
  <rect x="82.303" y="55.49" width="5.959" height="2.979" fill="#111111"/>
  <rect x="91.241" y="55.49" width="2.979" height="2.979" fill="#111111"/>
  <rect x="16.759" y="58.469" width="2.979" height="2.979" fill="#111111"/>
  <rect x="22.717" y="58.469" width="2.979" height="2.979" fill="#111111"/>
  <rect x="28.676" y="58.469" width="8.938" height="2.979" fill="#111111"/>
  <rect x="46.552" y="58.469" width="2.979" height="2.979" fill="#111111"/>
  <rect x="52.51" y="58.469" width="5.959" height="2.979" fill="#111111"/>
  <rect x="61.448" y="58.469" width="2.979" height="2.979" fill="#111111"/>
  <rect x="73.366" y="58.469" width="5.959" height="2.979" fill="#111111"/>
  <rect x="85.283" y="58.469" width="2.979" height="2.979" fill="#111111"/>
  <rect x="91.241" y="58.469" width="5.959" height="2.979" fill="#111111"/>
  <rect x="16.759" y="61.448" width="2.979" height="2.979" fill="#111111"/>
  <rect x="22.717" y="61.448" width="5.959" height="2.979" fill="#111111"/>
  <rect x="31.655" y="61.448" width="8.938" height="2.979" fill="#111111"/>
  <rect x="43.572" y="61.448" width="5.959" height="2.979" fill="#111111"/>
  <rect x="52.51" y="61.448" width="5.959" height="2.979" fill="#111111"/>
  <rect x="70.386" y="61.448" width="8.938" height="2.979" fill="#111111"/>
  <rect x="85.283" y="61.448" width="5.959" height="2.979" fill="#111111"/>
  <rect x="94.221" y="61.448" width="2.979" height="2.979" fill="#111111"/>
  <rect x="10.8" y="64.428" width="2.979" height="2.979" fill="#111111"/>
  <rect x="16.759" y="64.428" width="5.959" height="2.979" fill="#111111"/>
  <rect x="25.697" y="64.428" width="5.959" height="2.979" fill="#111111"/>
  <rect x="37.614" y="64.428" width="5.959" height="2.979" fill="#111111"/>
  <rect x="46.552" y="64.428" width="5.959" height="2.979" fill="#111111"/>
  <rect x="73.366" y="64.428" width="11.917" height="2.979" fill="#111111"/>
  <rect x="91.241" y="64.428" width="5.959" height="2.979" fill="#111111"/>
  <rect x="13.779" y="67.407" width="5.959" height="2.979" fill="#111111"/>
  <rect x="22.717" y="67.407" width="2.979" height="2.979" fill="#111111"/>
  <rect x="37.614" y="67.407" width="5.959" height="2.979" fill="#111111"/>
  <rect x="55.49" y="67.407" width="2.979" height="2.979" fill="#111111"/>
  <rect x="61.448" y="67.407" width="2.979" height="2.979" fill="#111111"/>
  <rect x="67.407" y="67.407" width="8.938" height="2.979" fill="#111111"/>
  <rect x="85.283" y="67.407" width="2.979" height="2.979" fill="#111111"/>
  <rect x="91.241" y="67.407" width="2.979" height="2.979" fill="#111111"/>
  <rect x="10.8" y="70.386" width="2.979" height="2.979" fill="#111111"/>
  <rect x="16.759" y="70.386" width="5.959" height="2.979" fill="#111111"/>
  <rect x="25.697" y="70.386" width="8.938" height="2.979" fill="#111111"/>
  <rect x="37.614" y="70.386" width="8.938" height="2.979" fill="#111111"/>
  <rect x="58.469" y="70.386" width="5.959" height="2.979" fill="#111111"/>
  <rect x="70.386" y="70.386" width="14.897" height="2.979" fill="#111111"/>
  <rect x="34.634" y="73.366" width="5.959" height="2.979" fill="#111111"/>
  <rect x="43.572" y="73.366" width="8.938" height="2.979" fill="#111111"/>
  <rect x="55.49" y="73.366" width="8.938" height="2.979" fill="#111111"/>
  <rect x="67.407" y="73.366" width="5.959" height="2.979" fill="#111111"/>
  <rect x="82.303" y="73.366" width="2.979" height="2.979" fill="#111111"/>
  <rect x="88.262" y="73.366" width="8.938" height="2.979" fill="#111111"/>
  <rect x="10.8" y="76.345" width="20.855" height="2.979" fill="#111111"/>
  <rect x="43.572" y="76.345" width="5.959" height="2.979" fill="#111111"/>
  <rect x="52.51" y="76.345" width="8.938" height="2.979" fill="#111111"/>
  <rect x="67.407" y="76.345" width="5.959" height="2.979" fill="#111111"/>
  <rect x="76.345" y="76.345" width="2.979" height="2.979" fill="#111111"/>
  <rect x="82.303" y="76.345" width="5.959" height="2.979" fill="#111111"/>
  <rect x="91.241" y="76.345" width="5.959" height="2.979" fill="#111111"/>
  <rect x="10.8" y="79.324" width="2.979" height="2.979" fill="#111111"/>
  <rect x="28.676" y="79.324" width="2.979" height="2.979" fill="#111111"/>
  <rect x="40.593" y="79.324" width="5.959" height="2.979" fill="#111111"/>
  <rect x="49.531" y="79.324" width="5.959" height="2.979" fill="#111111"/>
  <rect x="58.469" y="79.324" width="8.938" height="2.979" fill="#111111"/>
  <rect x="70.386" y="79.324" width="2.979" height="2.979" fill="#111111"/>
  <rect x="82.303" y="79.324" width="5.959" height="2.979" fill="#111111"/>
  <rect x="91.241" y="79.324" width="2.979" height="2.979" fill="#111111"/>
  <rect x="10.8" y="82.303" width="2.979" height="2.979" fill="#111111"/>
  <rect x="16.759" y="82.303" width="8.938" height="2.979" fill="#111111"/>
  <rect x="28.676" y="82.303" width="2.979" height="2.979" fill="#111111"/>
  <rect x="34.634" y="82.303" width="2.979" height="2.979" fill="#111111"/>
  <rect x="46.552" y="82.303" width="2.979" height="2.979" fill="#111111"/>
  <rect x="52.51" y="82.303" width="5.959" height="2.979" fill="#111111"/>
  <rect x="64.428" y="82.303" width="2.979" height="2.979" fill="#111111"/>
  <rect x="70.386" y="82.303" width="14.897" height="2.979" fill="#111111"/>
  <rect x="91.241" y="82.303" width="2.979" height="2.979" fill="#111111"/>
  <rect x="10.8" y="85.283" width="2.979" height="2.979" fill="#111111"/>
  <rect x="16.759" y="85.283" width="8.938" height="2.979" fill="#111111"/>
  <rect x="28.676" y="85.283" width="2.979" height="2.979" fill="#111111"/>
  <rect x="37.614" y="85.283" width="2.979" height="2.979" fill="#111111"/>
  <rect x="43.572" y="85.283" width="2.979" height="2.979" fill="#111111"/>
  <rect x="49.531" y="85.283" width="8.938" height="2.979" fill="#111111"/>
  <rect x="67.407" y="85.283" width="2.979" height="2.979" fill="#111111"/>
  <rect x="73.366" y="85.283" width="2.979" height="2.979" fill="#111111"/>
  <rect x="82.303" y="85.283" width="2.979" height="2.979" fill="#111111"/>
  <rect x="88.262" y="85.283" width="2.979" height="2.979" fill="#111111"/>
  <rect x="10.8" y="88.262" width="2.979" height="2.979" fill="#111111"/>
  <rect x="16.759" y="88.262" width="8.938" height="2.979" fill="#111111"/>
  <rect x="28.676" y="88.262" width="2.979" height="2.979" fill="#111111"/>
  <rect x="34.634" y="88.262" width="8.938" height="2.979" fill="#111111"/>
  <rect x="49.531" y="88.262" width="2.979" height="2.979" fill="#111111"/>
  <rect x="61.448" y="88.262" width="2.979" height="2.979" fill="#111111"/>
  <rect x="67.407" y="88.262" width="5.959" height="2.979" fill="#111111"/>
  <rect x="79.324" y="88.262" width="8.938" height="2.979" fill="#111111"/>
  <rect x="94.221" y="88.262" width="2.979" height="2.979" fill="#111111"/>
  <rect x="10.8" y="91.241" width="2.979" height="2.979" fill="#111111"/>
  <rect x="28.676" y="91.241" width="2.979" height="2.979" fill="#111111"/>
  <rect x="37.614" y="91.241" width="2.979" height="2.979" fill="#111111"/>
  <rect x="46.552" y="91.241" width="11.917" height="2.979" fill="#111111"/>
  <rect x="67.407" y="91.241" width="5.959" height="2.979" fill="#111111"/>
  <rect x="76.345" y="91.241" width="8.938" height="2.979" fill="#111111"/>
  <rect x="91.241" y="91.241" width="2.979" height="2.979" fill="#111111"/>
  <rect x="10.8" y="94.221" width="20.855" height="2.979" fill="#111111"/>
  <rect x="34.634" y="94.221" width="5.959" height="2.979" fill="#111111"/>
  <rect x="58.469" y="94.221" width="2.979" height="2.979" fill="#111111"/>
  <rect x="67.407" y="94.221" width="5.959" height="2.979" fill="#111111"/>
  <rect x="82.303" y="94.221" width="5.959" height="2.979" fill="#111111"/>
  <rect x="91.241" y="94.221" width="5.959" height="2.979" fill="#111111"/>
</g>
<text x="420" y="137" fill="#80ffea" font-family="SFMono-Regular, ui-monospace, Consolas, Liberation Mono, monospace" font-size="27" font-weight="950" text-anchor="start">POCKET RUNCARD</text>
<text x="418" y="230" fill="#fffaf0" font-family="Inter, ui-sans-serif, system-ui, -apple-system, BlinkMacSystemFont, Segoe UI, sans-serif" font-size="80" font-weight="950" text-anchor="start">Ari Vale</text>
<text x="424" y="280" fill="#ffd84d" font-family="Inter, ui-sans-serif, system-ui, -apple-system, BlinkMacSystemFont, Segoe UI, sans-serif" font-size="31" font-weight="750" text-anchor="start">proof over claims</text>
<rect x="424" y="338" width="184" height="70" rx="12" fill="#80ffea" stroke="none" stroke-width="1" opacity="1"/>
<text x="448" y="382" fill="#111111" font-family="SFMono-Regular, ui-monospace, Consolas, Liberation Mono, monospace" font-size="35" font-weight="950" text-anchor="start">TEE</text>
<rect x="636" y="338" width="184" height="70" rx="12" fill="#fffaf0" stroke="none" stroke-width="1" opacity="1"/>
<text x="660" y="382" fill="#111111" font-family="SFMono-Regular, ui-monospace, Consolas, Liberation Mono, monospace" font-size="35" font-weight="950" text-anchor="start">18k</text>
<rect x="848" y="338" width="184" height="70" rx="12" fill="#ff7b54" stroke="none" stroke-width="1" opacity="1"/>
<text x="872" y="382" fill="#111111" font-family="SFMono-Regular, ui-monospace, Consolas, Liberation Mono, monospace" font-size="35" font-weight="950" text-anchor="start">12d</text>
<text x="426" y="464" fill="#fffaf0" font-family="SFMono-Regular, ui-monospace, Consolas, Liberation Mono, monospace" font-size="22" font-weight="850" text-anchor="start">active: strict workbench | latest: 27s ago | public aggregate</text>
<text x="426" y="512" fill="#80ffea" font-family="SFMono-Regular, ui-monospace, Consolas, Liberation Mono, monospace" font-size="26" font-weight="950" text-anchor="start">runcard.dev/@arivale</text>

</svg>
