<svg xmlns="http://www.w3.org/2000/svg" width="1200" height="630" viewBox="0 0 1200 630" role="img" aria-labelledby="title desc">
  <title id="title">Individual Passport Runcard</title>
  <desc id="desc">A personal proof card for an individual participant with device identity and daily stats.</desc>
  <defs></defs>

<rect x="0" y="0" width="1200" height="630" rx="0" fill="#eef7f4" stroke="none" stroke-width="1" opacity="1"/>
<rect x="54" y="46" width="1092" height="538" rx="20" fill="#fff8e8" stroke="#11211d" stroke-width="3" opacity="1"/>
<rect x="86" y="80" width="255" height="396" rx="12" fill="#c8efe8" stroke="#11211d" stroke-width="3" opacity="1"/>
<rect x="116" y="112" width="195" height="180" rx="12" fill="#11211d" stroke="none" stroke-width="1" opacity="1"/>
<text x="213" y="221" fill="#fff8e8" font-family="SFMono-Regular, ui-monospace, Consolas, Liberation Mono, monospace" font-size="76" font-weight="950" text-anchor="middle">MP</text>
<text x="116" y="341" fill="#11211d" font-family="SFMono-Regular, ui-monospace, Consolas, Liberation Mono, monospace" font-size="19" font-weight="850" text-anchor="start">participant</text>
<text x="116" y="386" fill="#11211d" font-family="SFMono-Regular, ui-monospace, Consolas, Liberation Mono, monospace" font-size="30" font-weight="900" text-anchor="start">@mina.builds</text>
<g>
  <rect x="116" y="416" width="158" height="34" rx="17" fill="#ffcf4a" stroke="#11211d" stroke-width="1" opacity="1"/>
  <text x="195" y="439" fill="#11211d" font-family="Inter, ui-sans-serif, system-ui, -apple-system, BlinkMacSystemFont, Segoe UI, sans-serif" font-size="16" font-weight="700" text-anchor="middle">public daily</text>
</g>
<text x="392" y="124" fill="#116b63" font-family="SFMono-Regular, ui-monospace, Consolas, Liberation Mono, monospace" font-size="25" font-weight="900" text-anchor="start">INDIVIDUAL RUN CARD</text>
<text x="390" y="188" fill="#11211d" font-family="Inter, ui-sans-serif, system-ui, -apple-system, BlinkMacSystemFont, Segoe UI, sans-serif" font-size="70" font-weight="950" text-anchor="start">Mina Park</text>
<text x="394" y="230" fill="#515b55" font-family="Inter, ui-sans-serif, system-ui, -apple-system, BlinkMacSystemFont, Segoe UI, sans-serif" font-size="26" font-weight="700" text-anchor="start">trust over tokens | proof passport</text>
<g>
  <rect x="392" y="278" width="218" height="120" rx="10" fill="#fffdf5" stroke="#111" stroke-width="2" opacity="1"/>
  <rect x="392" y="278" width="12" height="120" rx="6" fill="#116b63" stroke="none" stroke-width="1" opacity="1"/>
  <text x="420" y="315" fill="#4c4c4c" font-family="SFMono-Regular, ui-monospace, Consolas, Liberation Mono, monospace" font-size="17" font-weight="750" text-anchor="start">TODAY</text>
  <text x="420" y="360" fill="#111" font-family="Inter, ui-sans-serif, system-ui, -apple-system, BlinkMacSystemFont, Segoe UI, sans-serif" font-size="39" font-weight="850" text-anchor="start">318k</text>
  <text x="420" y="384" fill="#4c4c4c" font-family="Inter, ui-sans-serif, system-ui, -apple-system, BlinkMacSystemFont, Segoe UI, sans-serif" font-size="16" font-weight="600" text-anchor="start">captured tokens</text>
</g>
<g>
  <rect x="632" y="278" width="188" height="120" rx="10" fill="#fffdf5" stroke="#111" stroke-width="2" opacity="1"/>
  <rect x="632" y="278" width="12" height="120" rx="6" fill="#ff7b54" stroke="none" stroke-width="1" opacity="1"/>
  <text x="660" y="315" fill="#4c4c4c" font-family="SFMono-Regular, ui-monospace, Consolas, Liberation Mono, monospace" font-size="17" font-weight="750" text-anchor="start">CALLS</text>
  <text x="660" y="360" fill="#111" font-family="Inter, ui-sans-serif, system-ui, -apple-system, BlinkMacSystemFont, Segoe UI, sans-serif" font-size="39" font-weight="850" text-anchor="start">54</text>
  <text x="660" y="384" fill="#4c4c4c" font-family="Inter, ui-sans-serif, system-ui, -apple-system, BlinkMacSystemFont, Segoe UI, sans-serif" font-size="16" font-weight="600" text-anchor="start">all routed</text>
</g>
<g>
  <rect x="842" y="278" width="188" height="120" rx="10" fill="#fffdf5" stroke="#111" stroke-width="2" opacity="1"/>
  <rect x="842" y="278" width="12" height="120" rx="6" fill="#ffcf4a" stroke="none" stroke-width="1" opacity="1"/>
  <text x="870" y="315" fill="#4c4c4c" font-family="SFMono-Regular, ui-monospace, Consolas, Liberation Mono, monospace" font-size="17" font-weight="750" text-anchor="start">STREAK</text>
  <text x="870" y="360" fill="#111" font-family="Inter, ui-sans-serif, system-ui, -apple-system, BlinkMacSystemFont, Segoe UI, sans-serif" font-size="39" font-weight="850" text-anchor="start">19d</text>
  <text x="870" y="384" fill="#4c4c4c" font-family="Inter, ui-sans-serif, system-ui, -apple-system, BlinkMacSystemFont, Segoe UI, sans-serif" font-size="16" font-weight="600" text-anchor="start">visible proof</text>
</g>
<rect x="392" y="436" width="410" height="56" rx="12" fill="#11211d" stroke="none" stroke-width="1" opacity="1"/>
<text x="418" y="472" fill="#fff8e8" font-family="SFMono-Regular, ui-monospace, Consolas, Liberation Mono, monospace" font-size="22" font-weight="850" text-anchor="start">active path: tee gateway on macOS</text>
<rect x="830" y="430" width="178" height="72" rx="12" fill="#fffdf5" stroke="#11211d" stroke-width="2" opacity="1"/>
<text x="854" y="461" fill="#116b63" font-family="SFMono-Regular, ui-monospace, Consolas, Liberation Mono, monospace" font-size="17" font-weight="850" text-anchor="start">assurance</text>
<text x="854" y="489" fill="#11211d" font-family="SFMono-Regular, ui-monospace, Consolas, Liberation Mono, monospace" font-size="25" font-weight="950" text-anchor="start">attested</text>
<g transform="translate(1006 88)">
  <rect x="0" y="0" width="104" height="104" rx="8" fill="#fffdf5" stroke="#11211d" stroke-width="2" opacity="1"/>
  <rect x="10.4" y="10.4" width="20.083" height="2.869" fill="#11211d"/>
  <rect x="39.09" y="10.4" width="17.214" height="2.869" fill="#11211d"/>
  <rect x="59.172" y="10.4" width="11.476" height="2.869" fill="#11211d"/>
  <rect x="73.517" y="10.4" width="20.083" height="2.869" fill="#11211d"/>
  <rect x="10.4" y="13.269" width="2.869" height="2.869" fill="#11211d"/>
  <rect x="27.614" y="13.269" width="2.869" height="2.869" fill="#11211d"/>
  <rect x="41.959" y="13.269" width="2.869" height="2.869" fill="#11211d"/>
  <rect x="47.697" y="13.269" width="11.476" height="2.869" fill="#11211d"/>
  <rect x="62.041" y="13.269" width="2.869" height="2.869" fill="#11211d"/>
  <rect x="67.779" y="13.269" width="2.869" height="2.869" fill="#11211d"/>
  <rect x="73.517" y="13.269" width="2.869" height="2.869" fill="#11211d"/>
  <rect x="90.731" y="13.269" width="2.869" height="2.869" fill="#11211d"/>
  <rect x="10.4" y="16.138" width="2.869" height="2.869" fill="#11211d"/>
  <rect x="16.138" y="16.138" width="8.607" height="2.869" fill="#11211d"/>
  <rect x="27.614" y="16.138" width="2.869" height="2.869" fill="#11211d"/>
  <rect x="33.352" y="16.138" width="2.869" height="2.869" fill="#11211d"/>
  <rect x="44.828" y="16.138" width="5.738" height="2.869" fill="#11211d"/>
  <rect x="53.434" y="16.138" width="2.869" height="2.869" fill="#11211d"/>
  <rect x="67.779" y="16.138" width="2.869" height="2.869" fill="#11211d"/>
  <rect x="73.517" y="16.138" width="2.869" height="2.869" fill="#11211d"/>
  <rect x="79.255" y="16.138" width="8.607" height="2.869" fill="#11211d"/>
  <rect x="90.731" y="16.138" width="2.869" height="2.869" fill="#11211d"/>
  <rect x="10.4" y="19.007" width="2.869" height="2.869" fill="#11211d"/>
  <rect x="16.138" y="19.007" width="8.607" height="2.869" fill="#11211d"/>
  <rect x="27.614" y="19.007" width="2.869" height="2.869" fill="#11211d"/>
  <rect x="33.352" y="19.007" width="5.738" height="2.869" fill="#11211d"/>
  <rect x="41.959" y="19.007" width="5.738" height="2.869" fill="#11211d"/>
  <rect x="50.566" y="19.007" width="5.738" height="2.869" fill="#11211d"/>
  <rect x="59.172" y="19.007" width="2.869" height="2.869" fill="#11211d"/>
  <rect x="64.91" y="19.007" width="2.869" height="2.869" fill="#11211d"/>
  <rect x="73.517" y="19.007" width="2.869" height="2.869" fill="#11211d"/>
  <rect x="79.255" y="19.007" width="8.607" height="2.869" fill="#11211d"/>
  <rect x="90.731" y="19.007" width="2.869" height="2.869" fill="#11211d"/>
  <rect x="10.4" y="21.876" width="2.869" height="2.869" fill="#11211d"/>
  <rect x="16.138" y="21.876" width="8.607" height="2.869" fill="#11211d"/>
  <rect x="27.614" y="21.876" width="2.869" height="2.869" fill="#11211d"/>
  <rect x="33.352" y="21.876" width="8.607" height="2.869" fill="#11211d"/>
  <rect x="44.828" y="21.876" width="2.869" height="2.869" fill="#11211d"/>
  <rect x="53.434" y="21.876" width="17.214" height="2.869" fill="#11211d"/>
  <rect x="73.517" y="21.876" width="2.869" height="2.869" fill="#11211d"/>
  <rect x="79.255" y="21.876" width="8.607" height="2.869" fill="#11211d"/>
  <rect x="90.731" y="21.876" width="2.869" height="2.869" fill="#11211d"/>
  <rect x="10.4" y="24.745" width="2.869" height="2.869" fill="#11211d"/>
  <rect x="27.614" y="24.745" width="2.869" height="2.869" fill="#11211d"/>
  <rect x="33.352" y="24.745" width="5.738" height="2.869" fill="#11211d"/>
  <rect x="41.959" y="24.745" width="2.869" height="2.869" fill="#11211d"/>
  <rect x="59.172" y="24.745" width="2.869" height="2.869" fill="#11211d"/>
  <rect x="73.517" y="24.745" width="2.869" height="2.869" fill="#11211d"/>
  <rect x="90.731" y="24.745" width="2.869" height="2.869" fill="#11211d"/>
  <rect x="10.4" y="27.614" width="20.083" height="2.869" fill="#11211d"/>
  <rect x="33.352" y="27.614" width="2.869" height="2.869" fill="#11211d"/>
  <rect x="39.09" y="27.614" width="2.869" height="2.869" fill="#11211d"/>
  <rect x="44.828" y="27.614" width="2.869" height="2.869" fill="#11211d"/>
  <rect x="50.566" y="27.614" width="2.869" height="2.869" fill="#11211d"/>
  <rect x="56.303" y="27.614" width="2.869" height="2.869" fill="#11211d"/>
  <rect x="62.041" y="27.614" width="2.869" height="2.869" fill="#11211d"/>
  <rect x="67.779" y="27.614" width="2.869" height="2.869" fill="#11211d"/>
  <rect x="73.517" y="27.614" width="20.083" height="2.869" fill="#11211d"/>
  <rect x="33.352" y="30.483" width="5.738" height="2.869" fill="#11211d"/>
  <rect x="41.959" y="30.483" width="2.869" height="2.869" fill="#11211d"/>
  <rect x="50.566" y="30.483" width="2.869" height="2.869" fill="#11211d"/>
  <rect x="56.303" y="30.483" width="2.869" height="2.869" fill="#11211d"/>
  <rect x="62.041" y="30.483" width="2.869" height="2.869" fill="#11211d"/>
  <rect x="10.4" y="33.352" width="2.869" height="2.869" fill="#11211d"/>
  <rect x="16.138" y="33.352" width="14.345" height="2.869" fill="#11211d"/>
  <rect x="36.221" y="33.352" width="5.738" height="2.869" fill="#11211d"/>
  <rect x="44.828" y="33.352" width="2.869" height="2.869" fill="#11211d"/>
  <rect x="56.303" y="33.352" width="5.738" height="2.869" fill="#11211d"/>
  <rect x="73.517" y="33.352" width="14.345" height="2.869" fill="#11211d"/>
  <rect x="10.4" y="36.221" width="2.869" height="2.869" fill="#11211d"/>
  <rect x="16.138" y="36.221" width="2.869" height="2.869" fill="#11211d"/>
  <rect x="39.09" y="36.221" width="2.869" height="2.869" fill="#11211d"/>
  <rect x="47.697" y="36.221" width="8.607" height="2.869" fill="#11211d"/>
  <rect x="62.041" y="36.221" width="2.869" height="2.869" fill="#11211d"/>
  <rect x="67.779" y="36.221" width="14.345" height="2.869" fill="#11211d"/>
  <rect x="90.731" y="36.221" width="2.869" height="2.869" fill="#11211d"/>
  <rect x="19.007" y="39.09" width="2.869" height="2.869" fill="#11211d"/>
  <rect x="27.614" y="39.09" width="11.476" height="2.869" fill="#11211d"/>
  <rect x="41.959" y="39.09" width="17.214" height="2.869" fill="#11211d"/>
  <rect x="62.041" y="39.09" width="2.869" height="2.869" fill="#11211d"/>
  <rect x="67.779" y="39.09" width="5.738" height="2.869" fill="#11211d"/>
  <rect x="76.386" y="39.09" width="2.869" height="2.869" fill="#11211d"/>
  <rect x="10.4" y="41.959" width="2.869" height="2.869" fill="#11211d"/>
  <rect x="19.007" y="41.959" width="5.738" height="2.869" fill="#11211d"/>
  <rect x="30.483" y="41.959" width="2.869" height="2.869" fill="#11211d"/>
  <rect x="41.959" y="41.959" width="8.607" height="2.869" fill="#11211d"/>
  <rect x="53.434" y="41.959" width="2.869" height="2.869" fill="#11211d"/>
  <rect x="64.91" y="41.959" width="5.738" height="2.869" fill="#11211d"/>
  <rect x="79.255" y="41.959" width="5.738" height="2.869" fill="#11211d"/>
  <rect x="87.862" y="41.959" width="2.869" height="2.869" fill="#11211d"/>
  <rect x="10.4" y="44.828" width="14.345" height="2.869" fill="#11211d"/>
  <rect x="27.614" y="44.828" width="2.869" height="2.869" fill="#11211d"/>
  <rect x="36.221" y="44.828" width="11.476" height="2.869" fill="#11211d"/>
  <rect x="50.566" y="44.828" width="5.738" height="2.869" fill="#11211d"/>
  <rect x="59.172" y="44.828" width="8.607" height="2.869" fill="#11211d"/>
  <rect x="82.124" y="44.828" width="5.738" height="2.869" fill="#11211d"/>
  <rect x="10.4" y="47.697" width="2.869" height="2.869" fill="#11211d"/>
  <rect x="16.138" y="47.697" width="2.869" height="2.869" fill="#11211d"/>
  <rect x="21.876" y="47.697" width="5.738" height="2.869" fill="#11211d"/>
  <rect x="39.09" y="47.697" width="2.869" height="2.869" fill="#11211d"/>
  <rect x="53.434" y="47.697" width="14.345" height="2.869" fill="#11211d"/>
  <rect x="73.517" y="47.697" width="8.607" height="2.869" fill="#11211d"/>
  <rect x="90.731" y="47.697" width="2.869" height="2.869" fill="#11211d"/>
  <rect x="21.876" y="50.566" width="11.476" height="2.869" fill="#11211d"/>
  <rect x="36.221" y="50.566" width="2.869" height="2.869" fill="#11211d"/>
  <rect x="44.828" y="50.566" width="2.869" height="2.869" fill="#11211d"/>
  <rect x="59.172" y="50.566" width="2.869" height="2.869" fill="#11211d"/>
  <rect x="70.648" y="50.566" width="2.869" height="2.869" fill="#11211d"/>
  <rect x="82.124" y="50.566" width="5.738" height="2.869" fill="#11211d"/>
  <rect x="19.007" y="53.434" width="8.607" height="2.869" fill="#11211d"/>
  <rect x="41.959" y="53.434" width="2.869" height="2.869" fill="#11211d"/>
  <rect x="50.566" y="53.434" width="2.869" height="2.869" fill="#11211d"/>
  <rect x="56.303" y="53.434" width="2.869" height="2.869" fill="#11211d"/>
  <rect x="62.041" y="53.434" width="17.214" height="2.869" fill="#11211d"/>
  <rect x="87.862" y="53.434" width="2.869" height="2.869" fill="#11211d"/>
  <rect x="10.4" y="56.303" width="2.869" height="2.869" fill="#11211d"/>
  <rect x="16.138" y="56.303" width="2.869" height="2.869" fill="#11211d"/>
  <rect x="24.745" y="56.303" width="5.738" height="2.869" fill="#11211d"/>
  <rect x="41.959" y="56.303" width="2.869" height="2.869" fill="#11211d"/>
  <rect x="59.172" y="56.303" width="2.869" height="2.869" fill="#11211d"/>
  <rect x="67.779" y="56.303" width="2.869" height="2.869" fill="#11211d"/>
  <rect x="82.124" y="56.303" width="5.738" height="2.869" fill="#11211d"/>
  <rect x="10.4" y="59.172" width="5.738" height="2.869" fill="#11211d"/>
  <rect x="19.007" y="59.172" width="5.738" height="2.869" fill="#11211d"/>
  <rect x="33.352" y="59.172" width="5.738" height="2.869" fill="#11211d"/>
  <rect x="41.959" y="59.172" width="2.869" height="2.869" fill="#11211d"/>
  <rect x="47.697" y="59.172" width="8.607" height="2.869" fill="#11211d"/>
  <rect x="62.041" y="59.172" width="20.083" height="2.869" fill="#11211d"/>
  <rect x="84.993" y="59.172" width="2.869" height="2.869" fill="#11211d"/>
  <rect x="90.731" y="59.172" width="2.869" height="2.869" fill="#11211d"/>
  <rect x="10.4" y="62.041" width="2.869" height="2.869" fill="#11211d"/>
  <rect x="27.614" y="62.041" width="5.738" height="2.869" fill="#11211d"/>
  <rect x="44.828" y="62.041" width="20.083" height="2.869" fill="#11211d"/>
  <rect x="67.779" y="62.041" width="2.869" height="2.869" fill="#11211d"/>
  <rect x="76.386" y="62.041" width="5.738" height="2.869" fill="#11211d"/>
  <rect x="84.993" y="62.041" width="2.869" height="2.869" fill="#11211d"/>
  <rect x="10.4" y="64.91" width="2.869" height="2.869" fill="#11211d"/>
  <rect x="16.138" y="64.91" width="8.607" height="2.869" fill="#11211d"/>
  <rect x="33.352" y="64.91" width="5.738" height="2.869" fill="#11211d"/>
  <rect x="44.828" y="64.91" width="5.738" height="2.869" fill="#11211d"/>
  <rect x="62.041" y="64.91" width="2.869" height="2.869" fill="#11211d"/>
  <rect x="67.779" y="64.91" width="5.738" height="2.869" fill="#11211d"/>
  <rect x="76.386" y="64.91" width="5.738" height="2.869" fill="#11211d"/>
  <rect x="87.862" y="64.91" width="2.869" height="2.869" fill="#11211d"/>
  <rect x="10.4" y="67.779" width="2.869" height="2.869" fill="#11211d"/>
  <rect x="19.007" y="67.779" width="14.345" height="2.869" fill="#11211d"/>
  <rect x="39.09" y="67.779" width="5.738" height="2.869" fill="#11211d"/>
  <rect x="50.566" y="67.779" width="11.476" height="2.869" fill="#11211d"/>
  <rect x="67.779" y="67.779" width="14.345" height="2.869" fill="#11211d"/>
  <rect x="84.993" y="67.779" width="8.607" height="2.869" fill="#11211d"/>
  <rect x="33.352" y="70.648" width="2.869" height="2.869" fill="#11211d"/>
  <rect x="39.09" y="70.648" width="2.869" height="2.869" fill="#11211d"/>
  <rect x="44.828" y="70.648" width="2.869" height="2.869" fill="#11211d"/>
  <rect x="56.303" y="70.648" width="2.869" height="2.869" fill="#11211d"/>
  <rect x="67.779" y="70.648" width="2.869" height="2.869" fill="#11211d"/>
  <rect x="79.255" y="70.648" width="14.345" height="2.869" fill="#11211d"/>
  <rect x="10.4" y="73.517" width="20.083" height="2.869" fill="#11211d"/>
  <rect x="41.959" y="73.517" width="5.738" height="2.869" fill="#11211d"/>
  <rect x="53.434" y="73.517" width="2.869" height="2.869" fill="#11211d"/>
  <rect x="64.91" y="73.517" width="5.738" height="2.869" fill="#11211d"/>
  <rect x="73.517" y="73.517" width="2.869" height="2.869" fill="#11211d"/>
  <rect x="79.255" y="73.517" width="8.607" height="2.869" fill="#11211d"/>
  <rect x="10.4" y="76.386" width="2.869" height="2.869" fill="#11211d"/>
  <rect x="27.614" y="76.386" width="2.869" height="2.869" fill="#11211d"/>
  <rect x="33.352" y="76.386" width="8.607" height="2.869" fill="#11211d"/>
  <rect x="50.566" y="76.386" width="8.607" height="2.869" fill="#11211d"/>
  <rect x="64.91" y="76.386" width="5.738" height="2.869" fill="#11211d"/>
  <rect x="79.255" y="76.386" width="2.869" height="2.869" fill="#11211d"/>
  <rect x="87.862" y="76.386" width="2.869" height="2.869" fill="#11211d"/>
  <rect x="10.4" y="79.255" width="2.869" height="2.869" fill="#11211d"/>
  <rect x="16.138" y="79.255" width="8.607" height="2.869" fill="#11211d"/>
  <rect x="27.614" y="79.255" width="2.869" height="2.869" fill="#11211d"/>
  <rect x="33.352" y="79.255" width="2.869" height="2.869" fill="#11211d"/>
  <rect x="39.09" y="79.255" width="8.607" height="2.869" fill="#11211d"/>
  <rect x="53.434" y="79.255" width="2.869" height="2.869" fill="#11211d"/>
  <rect x="59.172" y="79.255" width="2.869" height="2.869" fill="#11211d"/>
  <rect x="67.779" y="79.255" width="14.345" height="2.869" fill="#11211d"/>
  <rect x="84.993" y="79.255" width="5.738" height="2.869" fill="#11211d"/>
  <rect x="10.4" y="82.124" width="2.869" height="2.869" fill="#11211d"/>
  <rect x="16.138" y="82.124" width="8.607" height="2.869" fill="#11211d"/>
  <rect x="27.614" y="82.124" width="2.869" height="2.869" fill="#11211d"/>
  <rect x="33.352" y="82.124" width="2.869" height="2.869" fill="#11211d"/>
  <rect x="39.09" y="82.124" width="2.869" height="2.869" fill="#11211d"/>
  <rect x="47.697" y="82.124" width="5.738" height="2.869" fill="#11211d"/>
  <rect x="56.303" y="82.124" width="8.607" height="2.869" fill="#11211d"/>
  <rect x="70.648" y="82.124" width="2.869" height="2.869" fill="#11211d"/>
  <rect x="76.386" y="82.124" width="2.869" height="2.869" fill="#11211d"/>
  <rect x="82.124" y="82.124" width="11.476" height="2.869" fill="#11211d"/>
  <rect x="10.4" y="84.993" width="2.869" height="2.869" fill="#11211d"/>
  <rect x="16.138" y="84.993" width="8.607" height="2.869" fill="#11211d"/>
  <rect x="27.614" y="84.993" width="2.869" height="2.869" fill="#11211d"/>
  <rect x="33.352" y="84.993" width="5.738" height="2.869" fill="#11211d"/>
  <rect x="41.959" y="84.993" width="5.738" height="2.869" fill="#11211d"/>
  <rect x="53.434" y="84.993" width="2.869" height="2.869" fill="#11211d"/>
  <rect x="62.041" y="84.993" width="5.738" height="2.869" fill="#11211d"/>
  <rect x="70.648" y="84.993" width="20.083" height="2.869" fill="#11211d"/>
  <rect x="10.4" y="87.862" width="2.869" height="2.869" fill="#11211d"/>
  <rect x="27.614" y="87.862" width="2.869" height="2.869" fill="#11211d"/>
  <rect x="36.221" y="87.862" width="2.869" height="2.869" fill="#11211d"/>
  <rect x="41.959" y="87.862" width="2.869" height="2.869" fill="#11211d"/>
  <rect x="53.434" y="87.862" width="5.738" height="2.869" fill="#11211d"/>
  <rect x="67.779" y="87.862" width="2.869" height="2.869" fill="#11211d"/>
  <rect x="73.517" y="87.862" width="2.869" height="2.869" fill="#11211d"/>
  <rect x="82.124" y="87.862" width="2.869" height="2.869" fill="#11211d"/>
  <rect x="87.862" y="87.862" width="2.869" height="2.869" fill="#11211d"/>
  <rect x="10.4" y="90.731" width="20.083" height="2.869" fill="#11211d"/>
  <rect x="33.352" y="90.731" width="8.607" height="2.869" fill="#11211d"/>
  <rect x="47.697" y="90.731" width="2.869" height="2.869" fill="#11211d"/>
  <rect x="59.172" y="90.731" width="2.869" height="2.869" fill="#11211d"/>
  <rect x="64.91" y="90.731" width="2.869" height="2.869" fill="#11211d"/>
  <rect x="70.648" y="90.731" width="5.738" height="2.869" fill="#11211d"/>
  <rect x="79.255" y="90.731" width="8.607" height="2.869" fill="#11211d"/>
</g>
<text x="1008" y="226" fill="#11211d" font-family="SFMono-Regular, ui-monospace, Consolas, Liberation Mono, monospace" font-size="17" font-weight="850" text-anchor="start">verify</text>
<line x1="388" y1="532" x2="1110" y2="532" stroke="#11211d" stroke-width="2" opacity="1"/>
<text x="394" y="560" fill="#515b55" font-family="SFMono-Regular, ui-monospace, Consolas, Liberation Mono, monospace" font-size="18" font-weight="700" text-anchor="start">device key 5f1c...92a0 | latest event: local proxy usage receipt 12s ago</text>

</svg>
