<svg xmlns="http://www.w3.org/2000/svg" width="1200" height="630" viewBox="0 0 1200 630" role="img" aria-labelledby="title desc">
  <title id="title">Team Terminal Runcard</title>
  <desc id="desc">A terminal-native team card for README and CI surfaces.</desc>
  <defs></defs>

<rect x="0" y="0" width="1200" height="630" rx="0" fill="#070807" stroke="none" stroke-width="1" opacity="1"/>
<rect x="36" y="34" width="1128" height="560" rx="12" fill="#0d100d" stroke="#d9f99d" stroke-width="2" opacity="1"/>
<rect x="36" y="34" width="1128" height="56" rx="12" fill="#d9f99d" stroke="none" stroke-width="1" opacity="1"/>
<text x="64" y="72" fill="#0d100d" font-family="SFMono-Regular, ui-monospace, Consolas, Liberation Mono, monospace" font-size="24" font-weight="900" text-anchor="start">runcard team status --event sf-agent-jam --team vector-lab</text>
<g>
  <text x="72" y="142" fill="#8fbc8f" font-family="SFMono-Regular, ui-monospace, Consolas, Liberation Mono, monospace" font-size="24" font-weight="850" text-anchor="start">$ team</text>
  <text x="222" y="142" fill="#fef3c7" font-family="SFMono-Regular, ui-monospace, Consolas, Liberation Mono, monospace" font-size="26" font-weight="850" text-anchor="start">Vector Lab</text>
</g>
<g>
  <text x="72" y="190" fill="#8fbc8f" font-family="SFMono-Regular, ui-monospace, Consolas, Liberation Mono, monospace" font-size="24" font-weight="850" text-anchor="start">$ members</text>
  <text x="222" y="190" fill="#a7f3d0" font-family="SFMono-Regular, ui-monospace, Consolas, Liberation Mono, monospace" font-size="26" font-weight="850" text-anchor="start">alex:TEE  bea:managed  cam:TEE</text>
</g>
<g>
  <text x="72" y="238" fill="#8fbc8f" font-family="SFMono-Regular, ui-monospace, Consolas, Liberation Mono, monospace" font-size="24" font-weight="850" text-anchor="start">$ capture</text>
  <text x="222" y="238" fill="#bae6fd" font-family="SFMono-Regular, ui-monospace, Consolas, Liberation Mono, monospace" font-size="26" font-weight="850" text-anchor="start">gw=117  proxy=34  wb=8  browser=2</text>
</g>
<g>
  <text x="72" y="286" fill="#8fbc8f" font-family="SFMono-Regular, ui-monospace, Consolas, Liberation Mono, monospace" font-size="24" font-weight="850" text-anchor="start">$ tokens</text>
  <text x="222" y="286" fill="#fda4af" font-family="SFMono-Regular, ui-monospace, Consolas, Liberation Mono, monospace" font-size="26" font-weight="850" text-anchor="start">2.40M total | 1.98M provider</text>
</g>
<g>
  <text x="72" y="334" fill="#8fbc8f" font-family="SFMono-Regular, ui-monospace, Consolas, Liberation Mono, monospace" font-size="24" font-weight="850" text-anchor="start">$ latest</text>
  <text x="222" y="334" fill="#fef08a" font-family="SFMono-Regular, ui-monospace, Consolas, Liberation Mono, monospace" font-size="26" font-weight="850" text-anchor="start">openai.responses via tee-gateway</text>
</g>
<rect x="74" y="388" width="600" height="96" rx="10" fill="#111811" stroke="#3f563f" stroke-width="2" opacity="1"/>
<text x="102" y="427" fill="#d9f99d" font-family="SFMono-Regular, ui-monospace, Consolas, Liberation Mono, monospace" font-size="21" font-weight="850" text-anchor="start">remote attestation</text>
<text x="102" y="461" fill="#f8fafc" font-family="SFMono-Regular, ui-monospace, Consolas, Liberation Mono, monospace" font-size="23" font-weight="850" text-anchor="start">stage0:value-x ok  runtime:tdx ok  tls-spki ok</text>
<rect x="724" y="132" width="346" height="352" rx="10" fill="#111811" stroke="#3f563f" stroke-width="2" opacity="1"/>
<text x="752" y="178" fill="#d9f99d" font-family="SFMono-Regular, ui-monospace, Consolas, Liberation Mono, monospace" font-size="20" font-weight="850" text-anchor="start">visibility</text>
<text x="752" y="226" fill="#f8fafc" font-family="SFMono-Regular, ui-monospace, Consolas, Liberation Mono, monospace" font-size="23" font-weight="800" text-anchor="start">team total</text>
<text x="752" y="276" fill="#d9f99d" font-family="SFMono-Regular, ui-monospace, Consolas, Liberation Mono, monospace" font-size="20" font-weight="850" text-anchor="start">model mix</text>
<g>
  <text x="752" y="322" fill="#f8fafc" font-family="SFMono-Regular, ui-monospace, Consolas, Liberation Mono, monospace" font-size="16" font-weight="750" text-anchor="start">gpt</text>
  <rect x="844" y="308" width="178" height="16" rx="8" fill="#233123" stroke="none" stroke-width="1" opacity="1"/>
  <rect x="844" y="308" width="98" height="16" rx="8" fill="#a7f3d0" stroke="none" stroke-width="1" opacity="1"/>
  <text x="1040" y="322" fill="#f8fafc" font-family="SFMono-Regular, ui-monospace, Consolas, Liberation Mono, monospace" font-size="15" font-weight="700" text-anchor="start">55%</text>
  <text x="752" y="365" fill="#f8fafc" font-family="SFMono-Regular, ui-monospace, Consolas, Liberation Mono, monospace" font-size="16" font-weight="750" text-anchor="start">claude</text>
  <rect x="844" y="351" width="178" height="16" rx="8" fill="#233123" stroke="none" stroke-width="1" opacity="1"/>
  <rect x="844" y="351" width="55" height="16" rx="8" fill="#bae6fd" stroke="none" stroke-width="1" opacity="1"/>
  <text x="1040" y="365" fill="#f8fafc" font-family="SFMono-Regular, ui-monospace, Consolas, Liberation Mono, monospace" font-size="15" font-weight="700" text-anchor="start">31%</text>
  <text x="752" y="408" fill="#f8fafc" font-family="SFMono-Regular, ui-monospace, Consolas, Liberation Mono, monospace" font-size="16" font-weight="750" text-anchor="start">local</text>
  <rect x="844" y="394" width="178" height="16" rx="8" fill="#233123" stroke="none" stroke-width="1" opacity="1"/>
  <rect x="844" y="394" width="25" height="16" rx="8" fill="#fef08a" stroke="none" stroke-width="1" opacity="1"/>
  <text x="1040" y="408" fill="#f8fafc" font-family="SFMono-Regular, ui-monospace, Consolas, Liberation Mono, monospace" font-size="15" font-weight="700" text-anchor="start">14%</text>
</g>
<g transform="translate(944 380)">
  <rect x="0" y="0" width="92" height="92" rx="8" fill="#d9f99d" stroke="#0d100d" stroke-width="2" opacity="1"/>
  <rect x="9.2" y="9.2" width="15.612" height="2.23" fill="#0d100d"/>
  <rect x="35.964" y="9.2" width="2.23" height="2.23" fill="#0d100d"/>
  <rect x="40.424" y="9.2" width="2.23" height="2.23" fill="#0d100d"/>
  <rect x="44.885" y="9.2" width="2.23" height="2.23" fill="#0d100d"/>
  <rect x="49.345" y="9.2" width="4.461" height="2.23" fill="#0d100d"/>
  <rect x="56.036" y="9.2" width="6.691" height="2.23" fill="#0d100d"/>
  <rect x="67.188" y="9.2" width="15.612" height="2.23" fill="#0d100d"/>
  <rect x="9.2" y="11.43" width="2.23" height="2.23" fill="#0d100d"/>
  <rect x="22.582" y="11.43" width="2.23" height="2.23" fill="#0d100d"/>
  <rect x="29.273" y="11.43" width="2.23" height="2.23" fill="#0d100d"/>
  <rect x="33.733" y="11.43" width="4.461" height="2.23" fill="#0d100d"/>
  <rect x="42.655" y="11.43" width="2.23" height="2.23" fill="#0d100d"/>
  <rect x="49.345" y="11.43" width="2.23" height="2.23" fill="#0d100d"/>
  <rect x="53.806" y="11.43" width="2.23" height="2.23" fill="#0d100d"/>
  <rect x="67.188" y="11.43" width="2.23" height="2.23" fill="#0d100d"/>
  <rect x="80.57" y="11.43" width="2.23" height="2.23" fill="#0d100d"/>
  <rect x="9.2" y="13.661" width="2.23" height="2.23" fill="#0d100d"/>
  <rect x="13.661" y="13.661" width="6.691" height="2.23" fill="#0d100d"/>
  <rect x="22.582" y="13.661" width="2.23" height="2.23" fill="#0d100d"/>
  <rect x="27.042" y="13.661" width="4.461" height="2.23" fill="#0d100d"/>
  <rect x="33.733" y="13.661" width="4.461" height="2.23" fill="#0d100d"/>
  <rect x="40.424" y="13.661" width="2.23" height="2.23" fill="#0d100d"/>
  <rect x="44.885" y="13.661" width="2.23" height="2.23" fill="#0d100d"/>
  <rect x="53.806" y="13.661" width="4.461" height="2.23" fill="#0d100d"/>
  <rect x="62.727" y="13.661" width="2.23" height="2.23" fill="#0d100d"/>
  <rect x="67.188" y="13.661" width="2.23" height="2.23" fill="#0d100d"/>
  <rect x="71.648" y="13.661" width="6.691" height="2.23" fill="#0d100d"/>
  <rect x="80.57" y="13.661" width="2.23" height="2.23" fill="#0d100d"/>
  <rect x="9.2" y="15.891" width="2.23" height="2.23" fill="#0d100d"/>
  <rect x="13.661" y="15.891" width="6.691" height="2.23" fill="#0d100d"/>
  <rect x="22.582" y="15.891" width="2.23" height="2.23" fill="#0d100d"/>
  <rect x="27.042" y="15.891" width="2.23" height="2.23" fill="#0d100d"/>
  <rect x="33.733" y="15.891" width="4.461" height="2.23" fill="#0d100d"/>
  <rect x="49.345" y="15.891" width="2.23" height="2.23" fill="#0d100d"/>
  <rect x="56.036" y="15.891" width="2.23" height="2.23" fill="#0d100d"/>
  <rect x="62.727" y="15.891" width="2.23" height="2.23" fill="#0d100d"/>
  <rect x="67.188" y="15.891" width="2.23" height="2.23" fill="#0d100d"/>
  <rect x="71.648" y="15.891" width="6.691" height="2.23" fill="#0d100d"/>
  <rect x="80.57" y="15.891" width="2.23" height="2.23" fill="#0d100d"/>
  <rect x="9.2" y="18.121" width="2.23" height="2.23" fill="#0d100d"/>
  <rect x="13.661" y="18.121" width="6.691" height="2.23" fill="#0d100d"/>
  <rect x="22.582" y="18.121" width="2.23" height="2.23" fill="#0d100d"/>
  <rect x="27.042" y="18.121" width="4.461" height="2.23" fill="#0d100d"/>
  <rect x="35.964" y="18.121" width="2.23" height="2.23" fill="#0d100d"/>
  <rect x="40.424" y="18.121" width="8.921" height="2.23" fill="#0d100d"/>
  <rect x="53.806" y="18.121" width="4.461" height="2.23" fill="#0d100d"/>
  <rect x="60.497" y="18.121" width="2.23" height="2.23" fill="#0d100d"/>
  <rect x="67.188" y="18.121" width="2.23" height="2.23" fill="#0d100d"/>
  <rect x="71.648" y="18.121" width="6.691" height="2.23" fill="#0d100d"/>
  <rect x="80.57" y="18.121" width="2.23" height="2.23" fill="#0d100d"/>
  <rect x="9.2" y="20.352" width="2.23" height="2.23" fill="#0d100d"/>
  <rect x="22.582" y="20.352" width="2.23" height="2.23" fill="#0d100d"/>
  <rect x="27.042" y="20.352" width="2.23" height="2.23" fill="#0d100d"/>
  <rect x="33.733" y="20.352" width="2.23" height="2.23" fill="#0d100d"/>
  <rect x="40.424" y="20.352" width="2.23" height="2.23" fill="#0d100d"/>
  <rect x="47.115" y="20.352" width="2.23" height="2.23" fill="#0d100d"/>
  <rect x="51.576" y="20.352" width="2.23" height="2.23" fill="#0d100d"/>
  <rect x="67.188" y="20.352" width="2.23" height="2.23" fill="#0d100d"/>
  <rect x="80.57" y="20.352" width="2.23" height="2.23" fill="#0d100d"/>
  <rect x="9.2" y="22.582" width="15.612" height="2.23" fill="#0d100d"/>
  <rect x="27.042" y="22.582" width="2.23" height="2.23" fill="#0d100d"/>
  <rect x="31.503" y="22.582" width="2.23" height="2.23" fill="#0d100d"/>
  <rect x="35.964" y="22.582" width="2.23" height="2.23" fill="#0d100d"/>
  <rect x="40.424" y="22.582" width="2.23" height="2.23" fill="#0d100d"/>
  <rect x="44.885" y="22.582" width="2.23" height="2.23" fill="#0d100d"/>
  <rect x="49.345" y="22.582" width="2.23" height="2.23" fill="#0d100d"/>
  <rect x="53.806" y="22.582" width="2.23" height="2.23" fill="#0d100d"/>
  <rect x="58.267" y="22.582" width="2.23" height="2.23" fill="#0d100d"/>
  <rect x="62.727" y="22.582" width="2.23" height="2.23" fill="#0d100d"/>
  <rect x="67.188" y="22.582" width="15.612" height="2.23" fill="#0d100d"/>
  <rect x="27.042" y="24.812" width="2.23" height="2.23" fill="#0d100d"/>
  <rect x="31.503" y="24.812" width="6.691" height="2.23" fill="#0d100d"/>
  <rect x="44.885" y="24.812" width="2.23" height="2.23" fill="#0d100d"/>
  <rect x="51.576" y="24.812" width="6.691" height="2.23" fill="#0d100d"/>
  <rect x="62.727" y="24.812" width="2.23" height="2.23" fill="#0d100d"/>
  <rect x="9.2" y="27.042" width="2.23" height="2.23" fill="#0d100d"/>
  <rect x="13.661" y="27.042" width="11.152" height="2.23" fill="#0d100d"/>
  <rect x="31.503" y="27.042" width="8.921" height="2.23" fill="#0d100d"/>
  <rect x="47.115" y="27.042" width="2.23" height="2.23" fill="#0d100d"/>
  <rect x="51.576" y="27.042" width="2.23" height="2.23" fill="#0d100d"/>
  <rect x="58.267" y="27.042" width="2.23" height="2.23" fill="#0d100d"/>
  <rect x="62.727" y="27.042" width="2.23" height="2.23" fill="#0d100d"/>
  <rect x="67.188" y="27.042" width="11.152" height="2.23" fill="#0d100d"/>
  <rect x="9.2" y="29.273" width="2.23" height="2.23" fill="#0d100d"/>
  <rect x="18.121" y="29.273" width="2.23" height="2.23" fill="#0d100d"/>
  <rect x="24.812" y="29.273" width="2.23" height="2.23" fill="#0d100d"/>
  <rect x="29.273" y="29.273" width="4.461" height="2.23" fill="#0d100d"/>
  <rect x="35.964" y="29.273" width="4.461" height="2.23" fill="#0d100d"/>
  <rect x="44.885" y="29.273" width="4.461" height="2.23" fill="#0d100d"/>
  <rect x="51.576" y="29.273" width="4.461" height="2.23" fill="#0d100d"/>
  <rect x="60.497" y="29.273" width="2.23" height="2.23" fill="#0d100d"/>
  <rect x="67.188" y="29.273" width="4.461" height="2.23" fill="#0d100d"/>
  <rect x="73.879" y="29.273" width="4.461" height="2.23" fill="#0d100d"/>
  <rect x="80.57" y="29.273" width="2.23" height="2.23" fill="#0d100d"/>
  <rect x="9.2" y="31.503" width="2.23" height="2.23" fill="#0d100d"/>
  <rect x="13.661" y="31.503" width="2.23" height="2.23" fill="#0d100d"/>
  <rect x="18.121" y="31.503" width="13.382" height="2.23" fill="#0d100d"/>
  <rect x="35.964" y="31.503" width="13.382" height="2.23" fill="#0d100d"/>
  <rect x="53.806" y="31.503" width="2.23" height="2.23" fill="#0d100d"/>
  <rect x="58.267" y="31.503" width="2.23" height="2.23" fill="#0d100d"/>
  <rect x="64.958" y="31.503" width="2.23" height="2.23" fill="#0d100d"/>
  <rect x="71.648" y="31.503" width="2.23" height="2.23" fill="#0d100d"/>
  <rect x="76.109" y="31.503" width="4.461" height="2.23" fill="#0d100d"/>
  <rect x="9.2" y="33.733" width="4.461" height="2.23" fill="#0d100d"/>
  <rect x="18.121" y="33.733" width="4.461" height="2.23" fill="#0d100d"/>
  <rect x="24.812" y="33.733" width="6.691" height="2.23" fill="#0d100d"/>
  <rect x="33.733" y="33.733" width="6.691" height="2.23" fill="#0d100d"/>
  <rect x="42.655" y="33.733" width="13.382" height="2.23" fill="#0d100d"/>
  <rect x="60.497" y="33.733" width="4.461" height="2.23" fill="#0d100d"/>
  <rect x="71.648" y="33.733" width="8.921" height="2.23" fill="#0d100d"/>
  <rect x="9.2" y="35.964" width="2.23" height="2.23" fill="#0d100d"/>
  <rect x="20.352" y="35.964" width="4.461" height="2.23" fill="#0d100d"/>
  <rect x="27.042" y="35.964" width="11.152" height="2.23" fill="#0d100d"/>
  <rect x="40.424" y="35.964" width="6.691" height="2.23" fill="#0d100d"/>
  <rect x="51.576" y="35.964" width="8.921" height="2.23" fill="#0d100d"/>
  <rect x="62.727" y="35.964" width="4.461" height="2.23" fill="#0d100d"/>
  <rect x="71.648" y="35.964" width="4.461" height="2.23" fill="#0d100d"/>
  <rect x="9.2" y="38.194" width="2.23" height="2.23" fill="#0d100d"/>
  <rect x="13.661" y="38.194" width="4.461" height="2.23" fill="#0d100d"/>
  <rect x="20.352" y="38.194" width="2.23" height="2.23" fill="#0d100d"/>
  <rect x="31.503" y="38.194" width="2.23" height="2.23" fill="#0d100d"/>
  <rect x="42.655" y="38.194" width="2.23" height="2.23" fill="#0d100d"/>
  <rect x="49.345" y="38.194" width="2.23" height="2.23" fill="#0d100d"/>
  <rect x="56.036" y="38.194" width="2.23" height="2.23" fill="#0d100d"/>
  <rect x="60.497" y="38.194" width="2.23" height="2.23" fill="#0d100d"/>
  <rect x="67.188" y="38.194" width="2.23" height="2.23" fill="#0d100d"/>
  <rect x="73.879" y="38.194" width="2.23" height="2.23" fill="#0d100d"/>
  <rect x="78.339" y="38.194" width="4.461" height="2.23" fill="#0d100d"/>
  <rect x="9.2" y="40.424" width="4.461" height="2.23" fill="#0d100d"/>
  <rect x="15.891" y="40.424" width="4.461" height="2.23" fill="#0d100d"/>
  <rect x="22.582" y="40.424" width="2.23" height="2.23" fill="#0d100d"/>
  <rect x="27.042" y="40.424" width="2.23" height="2.23" fill="#0d100d"/>
  <rect x="31.503" y="40.424" width="2.23" height="2.23" fill="#0d100d"/>
  <rect x="42.655" y="40.424" width="8.921" height="2.23" fill="#0d100d"/>
  <rect x="53.806" y="40.424" width="6.691" height="2.23" fill="#0d100d"/>
  <rect x="62.727" y="40.424" width="6.691" height="2.23" fill="#0d100d"/>
  <rect x="71.648" y="40.424" width="8.921" height="2.23" fill="#0d100d"/>
  <rect x="9.2" y="42.655" width="2.23" height="2.23" fill="#0d100d"/>
  <rect x="13.661" y="42.655" width="2.23" height="2.23" fill="#0d100d"/>
  <rect x="27.042" y="42.655" width="4.461" height="2.23" fill="#0d100d"/>
  <rect x="33.733" y="42.655" width="2.23" height="2.23" fill="#0d100d"/>
  <rect x="40.424" y="42.655" width="4.461" height="2.23" fill="#0d100d"/>
  <rect x="56.036" y="42.655" width="2.23" height="2.23" fill="#0d100d"/>
  <rect x="64.958" y="42.655" width="6.691" height="2.23" fill="#0d100d"/>
  <rect x="76.109" y="42.655" width="2.23" height="2.23" fill="#0d100d"/>
  <rect x="11.43" y="44.885" width="2.23" height="2.23" fill="#0d100d"/>
  <rect x="18.121" y="44.885" width="2.23" height="2.23" fill="#0d100d"/>
  <rect x="22.582" y="44.885" width="4.461" height="2.23" fill="#0d100d"/>
  <rect x="29.273" y="44.885" width="4.461" height="2.23" fill="#0d100d"/>
  <rect x="35.964" y="44.885" width="8.921" height="2.23" fill="#0d100d"/>
  <rect x="47.115" y="44.885" width="2.23" height="2.23" fill="#0d100d"/>
  <rect x="60.497" y="44.885" width="6.691" height="2.23" fill="#0d100d"/>
  <rect x="69.418" y="44.885" width="4.461" height="2.23" fill="#0d100d"/>
  <rect x="80.57" y="44.885" width="2.23" height="2.23" fill="#0d100d"/>
  <rect x="11.43" y="47.115" width="2.23" height="2.23" fill="#0d100d"/>
  <rect x="24.812" y="47.115" width="2.23" height="2.23" fill="#0d100d"/>
  <rect x="29.273" y="47.115" width="8.921" height="2.23" fill="#0d100d"/>
  <rect x="44.885" y="47.115" width="2.23" height="2.23" fill="#0d100d"/>
  <rect x="49.345" y="47.115" width="4.461" height="2.23" fill="#0d100d"/>
  <rect x="56.036" y="47.115" width="2.23" height="2.23" fill="#0d100d"/>
  <rect x="60.497" y="47.115" width="2.23" height="2.23" fill="#0d100d"/>
  <rect x="64.958" y="47.115" width="6.691" height="2.23" fill="#0d100d"/>
  <rect x="73.879" y="47.115" width="4.461" height="2.23" fill="#0d100d"/>
  <rect x="80.57" y="47.115" width="2.23" height="2.23" fill="#0d100d"/>
  <rect x="9.2" y="49.345" width="2.23" height="2.23" fill="#0d100d"/>
  <rect x="22.582" y="49.345" width="4.461" height="2.23" fill="#0d100d"/>
  <rect x="35.964" y="49.345" width="4.461" height="2.23" fill="#0d100d"/>
  <rect x="42.655" y="49.345" width="4.461" height="2.23" fill="#0d100d"/>
  <rect x="49.345" y="49.345" width="2.23" height="2.23" fill="#0d100d"/>
  <rect x="56.036" y="49.345" width="2.23" height="2.23" fill="#0d100d"/>
  <rect x="62.727" y="49.345" width="11.152" height="2.23" fill="#0d100d"/>
  <rect x="76.109" y="49.345" width="4.461" height="2.23" fill="#0d100d"/>
  <rect x="13.661" y="51.576" width="2.23" height="2.23" fill="#0d100d"/>
  <rect x="31.503" y="51.576" width="4.461" height="2.23" fill="#0d100d"/>
  <rect x="40.424" y="51.576" width="2.23" height="2.23" fill="#0d100d"/>
  <rect x="44.885" y="51.576" width="2.23" height="2.23" fill="#0d100d"/>
  <rect x="51.576" y="51.576" width="11.152" height="2.23" fill="#0d100d"/>
  <rect x="64.958" y="51.576" width="13.382" height="2.23" fill="#0d100d"/>
  <rect x="80.57" y="51.576" width="2.23" height="2.23" fill="#0d100d"/>
  <rect x="11.43" y="53.806" width="2.23" height="2.23" fill="#0d100d"/>
  <rect x="18.121" y="53.806" width="2.23" height="2.23" fill="#0d100d"/>
  <rect x="22.582" y="53.806" width="6.691" height="2.23" fill="#0d100d"/>
  <rect x="33.733" y="53.806" width="4.461" height="2.23" fill="#0d100d"/>
  <rect x="40.424" y="53.806" width="4.461" height="2.23" fill="#0d100d"/>
  <rect x="49.345" y="53.806" width="2.23" height="2.23" fill="#0d100d"/>
  <rect x="56.036" y="53.806" width="2.23" height="2.23" fill="#0d100d"/>
  <rect x="60.497" y="53.806" width="6.691" height="2.23" fill="#0d100d"/>
  <rect x="69.418" y="53.806" width="6.691" height="2.23" fill="#0d100d"/>
  <rect x="80.57" y="53.806" width="2.23" height="2.23" fill="#0d100d"/>
  <rect x="9.2" y="56.036" width="4.461" height="2.23" fill="#0d100d"/>
  <rect x="18.121" y="56.036" width="2.23" height="2.23" fill="#0d100d"/>
  <rect x="24.812" y="56.036" width="2.23" height="2.23" fill="#0d100d"/>
  <rect x="29.273" y="56.036" width="4.461" height="2.23" fill="#0d100d"/>
  <rect x="38.194" y="56.036" width="2.23" height="2.23" fill="#0d100d"/>
  <rect x="42.655" y="56.036" width="4.461" height="2.23" fill="#0d100d"/>
  <rect x="53.806" y="56.036" width="2.23" height="2.23" fill="#0d100d"/>
  <rect x="58.267" y="56.036" width="4.461" height="2.23" fill="#0d100d"/>
  <rect x="64.958" y="56.036" width="4.461" height="2.23" fill="#0d100d"/>
  <rect x="73.879" y="56.036" width="2.23" height="2.23" fill="#0d100d"/>
  <rect x="80.57" y="56.036" width="2.23" height="2.23" fill="#0d100d"/>
  <rect x="9.2" y="58.267" width="2.23" height="2.23" fill="#0d100d"/>
  <rect x="13.661" y="58.267" width="2.23" height="2.23" fill="#0d100d"/>
  <rect x="18.121" y="58.267" width="2.23" height="2.23" fill="#0d100d"/>
  <rect x="22.582" y="58.267" width="2.23" height="2.23" fill="#0d100d"/>
  <rect x="33.733" y="58.267" width="8.921" height="2.23" fill="#0d100d"/>
  <rect x="47.115" y="58.267" width="2.23" height="2.23" fill="#0d100d"/>
  <rect x="51.576" y="58.267" width="2.23" height="2.23" fill="#0d100d"/>
  <rect x="58.267" y="58.267" width="2.23" height="2.23" fill="#0d100d"/>
  <rect x="73.879" y="58.267" width="2.23" height="2.23" fill="#0d100d"/>
  <rect x="78.339" y="58.267" width="2.23" height="2.23" fill="#0d100d"/>
  <rect x="9.2" y="60.497" width="2.23" height="2.23" fill="#0d100d"/>
  <rect x="15.891" y="60.497" width="4.461" height="2.23" fill="#0d100d"/>
  <rect x="31.503" y="60.497" width="2.23" height="2.23" fill="#0d100d"/>
  <rect x="35.964" y="60.497" width="2.23" height="2.23" fill="#0d100d"/>
  <rect x="44.885" y="60.497" width="2.23" height="2.23" fill="#0d100d"/>
  <rect x="49.345" y="60.497" width="8.921" height="2.23" fill="#0d100d"/>
  <rect x="67.188" y="60.497" width="2.23" height="2.23" fill="#0d100d"/>
  <rect x="73.879" y="60.497" width="6.691" height="2.23" fill="#0d100d"/>
  <rect x="9.2" y="62.727" width="2.23" height="2.23" fill="#0d100d"/>
  <rect x="15.891" y="62.727" width="2.23" height="2.23" fill="#0d100d"/>
  <rect x="20.352" y="62.727" width="4.461" height="2.23" fill="#0d100d"/>
  <rect x="27.042" y="62.727" width="4.461" height="2.23" fill="#0d100d"/>
  <rect x="33.733" y="62.727" width="2.23" height="2.23" fill="#0d100d"/>
  <rect x="38.194" y="62.727" width="4.461" height="2.23" fill="#0d100d"/>
  <rect x="47.115" y="62.727" width="8.921" height="2.23" fill="#0d100d"/>
  <rect x="58.267" y="62.727" width="17.842" height="2.23" fill="#0d100d"/>
  <rect x="78.339" y="62.727" width="4.461" height="2.23" fill="#0d100d"/>
  <rect x="27.042" y="64.958" width="8.921" height="2.23" fill="#0d100d"/>
  <rect x="44.885" y="64.958" width="11.152" height="2.23" fill="#0d100d"/>
  <rect x="62.727" y="64.958" width="2.23" height="2.23" fill="#0d100d"/>
  <rect x="71.648" y="64.958" width="2.23" height="2.23" fill="#0d100d"/>
  <rect x="76.109" y="64.958" width="2.23" height="2.23" fill="#0d100d"/>
  <rect x="80.57" y="64.958" width="2.23" height="2.23" fill="#0d100d"/>
  <rect x="9.2" y="67.188" width="15.612" height="2.23" fill="#0d100d"/>
  <rect x="29.273" y="67.188" width="2.23" height="2.23" fill="#0d100d"/>
  <rect x="35.964" y="67.188" width="13.382" height="2.23" fill="#0d100d"/>
  <rect x="53.806" y="67.188" width="2.23" height="2.23" fill="#0d100d"/>
  <rect x="58.267" y="67.188" width="6.691" height="2.23" fill="#0d100d"/>
  <rect x="67.188" y="67.188" width="2.23" height="2.23" fill="#0d100d"/>
  <rect x="71.648" y="67.188" width="2.23" height="2.23" fill="#0d100d"/>
  <rect x="76.109" y="67.188" width="4.461" height="2.23" fill="#0d100d"/>
  <rect x="9.2" y="69.418" width="2.23" height="2.23" fill="#0d100d"/>
  <rect x="22.582" y="69.418" width="2.23" height="2.23" fill="#0d100d"/>
  <rect x="27.042" y="69.418" width="8.921" height="2.23" fill="#0d100d"/>
  <rect x="42.655" y="69.418" width="2.23" height="2.23" fill="#0d100d"/>
  <rect x="47.115" y="69.418" width="4.461" height="2.23" fill="#0d100d"/>
  <rect x="53.806" y="69.418" width="2.23" height="2.23" fill="#0d100d"/>
  <rect x="60.497" y="69.418" width="4.461" height="2.23" fill="#0d100d"/>
  <rect x="71.648" y="69.418" width="8.921" height="2.23" fill="#0d100d"/>
  <rect x="9.2" y="71.648" width="2.23" height="2.23" fill="#0d100d"/>
  <rect x="13.661" y="71.648" width="6.691" height="2.23" fill="#0d100d"/>
  <rect x="22.582" y="71.648" width="2.23" height="2.23" fill="#0d100d"/>
  <rect x="27.042" y="71.648" width="2.23" height="2.23" fill="#0d100d"/>
  <rect x="31.503" y="71.648" width="6.691" height="2.23" fill="#0d100d"/>
  <rect x="40.424" y="71.648" width="6.691" height="2.23" fill="#0d100d"/>
  <rect x="53.806" y="71.648" width="6.691" height="2.23" fill="#0d100d"/>
  <rect x="62.727" y="71.648" width="13.382" height="2.23" fill="#0d100d"/>
  <rect x="78.339" y="71.648" width="4.461" height="2.23" fill="#0d100d"/>
  <rect x="9.2" y="73.879" width="2.23" height="2.23" fill="#0d100d"/>
  <rect x="13.661" y="73.879" width="6.691" height="2.23" fill="#0d100d"/>
  <rect x="22.582" y="73.879" width="2.23" height="2.23" fill="#0d100d"/>
  <rect x="27.042" y="73.879" width="13.382" height="2.23" fill="#0d100d"/>
  <rect x="42.655" y="73.879" width="2.23" height="2.23" fill="#0d100d"/>
  <rect x="47.115" y="73.879" width="4.461" height="2.23" fill="#0d100d"/>
  <rect x="56.036" y="73.879" width="2.23" height="2.23" fill="#0d100d"/>
  <rect x="60.497" y="73.879" width="6.691" height="2.23" fill="#0d100d"/>
  <rect x="71.648" y="73.879" width="6.691" height="2.23" fill="#0d100d"/>
  <rect x="80.57" y="73.879" width="2.23" height="2.23" fill="#0d100d"/>
  <rect x="9.2" y="76.109" width="2.23" height="2.23" fill="#0d100d"/>
  <rect x="13.661" y="76.109" width="6.691" height="2.23" fill="#0d100d"/>
  <rect x="22.582" y="76.109" width="2.23" height="2.23" fill="#0d100d"/>
  <rect x="27.042" y="76.109" width="2.23" height="2.23" fill="#0d100d"/>
  <rect x="31.503" y="76.109" width="15.612" height="2.23" fill="#0d100d"/>
  <rect x="53.806" y="76.109" width="17.842" height="2.23" fill="#0d100d"/>
  <rect x="9.2" y="78.339" width="2.23" height="2.23" fill="#0d100d"/>
  <rect x="22.582" y="78.339" width="2.23" height="2.23" fill="#0d100d"/>
  <rect x="31.503" y="78.339" width="4.461" height="2.23" fill="#0d100d"/>
  <rect x="40.424" y="78.339" width="4.461" height="2.23" fill="#0d100d"/>
  <rect x="56.036" y="78.339" width="2.23" height="2.23" fill="#0d100d"/>
  <rect x="71.648" y="78.339" width="6.691" height="2.23" fill="#0d100d"/>
  <rect x="9.2" y="80.57" width="15.612" height="2.23" fill="#0d100d"/>
  <rect x="27.042" y="80.57" width="2.23" height="2.23" fill="#0d100d"/>
  <rect x="31.503" y="80.57" width="2.23" height="2.23" fill="#0d100d"/>
  <rect x="35.964" y="80.57" width="2.23" height="2.23" fill="#0d100d"/>
  <rect x="40.424" y="80.57" width="4.461" height="2.23" fill="#0d100d"/>
  <rect x="47.115" y="80.57" width="2.23" height="2.23" fill="#0d100d"/>
  <rect x="58.267" y="80.57" width="2.23" height="2.23" fill="#0d100d"/>
  <rect x="62.727" y="80.57" width="2.23" height="2.23" fill="#0d100d"/>
  <rect x="67.188" y="80.57" width="4.461" height="2.23" fill="#0d100d"/>
  <rect x="78.339" y="80.57" width="2.23" height="2.23" fill="#0d100d"/>
</g>
<text x="74" y="548" fill="#9abf9a" font-family="SFMono-Regular, ui-monospace, Consolas, Liberation Mono, monospace" font-size="19" font-weight="800" text-anchor="start">TRUST OVER TOKENS | receipt root 9d14...ee31 | card policy public aggregate / private prompts</text>

</svg>
