<svg xmlns="http://www.w3.org/2000/svg" width="1200" height="630" viewBox="0 0 1200 630" role="img" aria-labelledby="title desc">
  <title id="title">Team Ledger Runcard</title>
  <desc id="desc">A team scorecard showing aggregate proof, token totals, capture mix, and assurance distribution.</desc>
  <defs></defs>

<rect x="0" y="0" width="1200" height="630" rx="0" fill="#f6f2e7" stroke="none" stroke-width="1" opacity="1"/>
<rect x="40" y="38" width="1120" height="554" rx="18" fill="#fffdf6" stroke="#1c1b17" stroke-width="3" opacity="1"/>
<rect x="64" y="62" width="290" height="68" rx="10" fill="#14130f" stroke="none" stroke-width="1" opacity="1"/>
<text x="88" y="106" fill="#fffdf6" font-family="SFMono-Regular, ui-monospace, Consolas, Liberation Mono, monospace" font-size="29" font-weight="900" text-anchor="start">TEAM RUN CARD</text>
<g>
  <rect x="905" y="70" width="190" height="34" rx="17" fill="#f4ff5b" stroke="#14130f" stroke-width="1" opacity="1"/>
  <text x="1000" y="93" fill="#14130f" font-family="Inter, ui-sans-serif, system-ui, -apple-system, BlinkMacSystemFont, Segoe UI, sans-serif" font-size="17" font-weight="700" text-anchor="middle">trust over tokens</text>
</g>
<text x="76" y="178" fill="#14130f" font-family="Inter, ui-sans-serif, system-ui, -apple-system, BlinkMacSystemFont, Segoe UI, sans-serif" font-size="66" font-weight="900" text-anchor="start">Neon Byte Club</text>
<text x="80" y="221" fill="#4e4b42" font-family="Inter, ui-sans-serif, system-ui, -apple-system, BlinkMacSystemFont, Segoe UI, sans-serif" font-size="25" font-weight="650" text-anchor="start">HackTX Autonomous Build-Off</text>
<rect x="878" y="154" width="220" height="142" rx="16" fill="#1fb7a6" stroke="#14130f" stroke-width="3" opacity="1"/>
<text x="988" y="202" fill="#081816" font-family="SFMono-Regular, ui-monospace, Consolas, Liberation Mono, monospace" font-size="20" font-weight="850" text-anchor="middle">RANK</text>
<text x="988" y="267" fill="#fffdf6" font-family="Inter, ui-sans-serif, system-ui, -apple-system, BlinkMacSystemFont, Segoe UI, sans-serif" font-size="70" font-weight="950" text-anchor="middle">#02</text>
<g>
  <rect x="80" y="270" width="238" height="120" rx="10" fill="#fff" stroke="#111" stroke-width="2" opacity="1"/>
  <rect x="80" y="270" width="12" height="120" rx="6" fill="#ff5a5f" stroke="none" stroke-width="1" opacity="1"/>
  <text x="108" y="307" fill="#4c4c4c" font-family="SFMono-Regular, ui-monospace, Consolas, Liberation Mono, monospace" font-size="17" font-weight="750" text-anchor="start">TOKENS</text>
  <text x="108" y="352" fill="#111" font-family="Inter, ui-sans-serif, system-ui, -apple-system, BlinkMacSystemFont, Segoe UI, sans-serif" font-size="39" font-weight="850" text-anchor="start">1.84M</text>
  <text x="108" y="376" fill="#4c4c4c" font-family="Inter, ui-sans-serif, system-ui, -apple-system, BlinkMacSystemFont, Segoe UI, sans-serif" font-size="16" font-weight="600" text-anchor="start">provider reported</text>
</g>
<g>
  <rect x="343" y="270" width="238" height="120" rx="10" fill="#fff" stroke="#111" stroke-width="2" opacity="1"/>
  <rect x="343" y="270" width="12" height="120" rx="6" fill="#1fb7a6" stroke="none" stroke-width="1" opacity="1"/>
  <text x="371" y="307" fill="#4c4c4c" font-family="SFMono-Regular, ui-monospace, Consolas, Liberation Mono, monospace" font-size="17" font-weight="750" text-anchor="start">CALLS</text>
  <text x="371" y="352" fill="#111" font-family="Inter, ui-sans-serif, system-ui, -apple-system, BlinkMacSystemFont, Segoe UI, sans-serif" font-size="39" font-weight="850" text-anchor="start">212</text>
  <text x="371" y="376" fill="#4c4c4c" font-family="Inter, ui-sans-serif, system-ui, -apple-system, BlinkMacSystemFont, Segoe UI, sans-serif" font-size="16" font-weight="600" text-anchor="start">gateway + proxy</text>
</g>
<g>
  <rect x="606" y="270" width="238" height="120" rx="10" fill="#fff" stroke="#111" stroke-width="2" opacity="1"/>
  <rect x="606" y="270" width="12" height="120" rx="6" fill="#f4c430" stroke="none" stroke-width="1" opacity="1"/>
  <text x="634" y="307" fill="#4c4c4c" font-family="SFMono-Regular, ui-monospace, Consolas, Liberation Mono, monospace" font-size="17" font-weight="750" text-anchor="start">MEMBERS</text>
  <text x="634" y="352" fill="#111" font-family="Inter, ui-sans-serif, system-ui, -apple-system, BlinkMacSystemFont, Segoe UI, sans-serif" font-size="39" font-weight="850" text-anchor="start">5 / 5</text>
  <text x="634" y="376" fill="#4c4c4c" font-family="Inter, ui-sans-serif, system-ui, -apple-system, BlinkMacSystemFont, Segoe UI, sans-serif" font-size="16" font-weight="600" text-anchor="start">active installs</text>
</g>
<text x="84" y="448" fill="#14130f" font-family="SFMono-Regular, ui-monospace, Consolas, Liberation Mono, monospace" font-size="22" font-weight="850" text-anchor="start">capture mix</text>
<g>
  <rect x="230" y="421" width="128" height="34" rx="17" fill="#14130f" stroke="none" stroke-width="1" opacity="1"/>
  <text x="294" y="444" fill="#fffdf6" font-family="Inter, ui-sans-serif, system-ui, -apple-system, BlinkMacSystemFont, Segoe UI, sans-serif" font-size="16" font-weight="700" text-anchor="middle">gateway</text>
</g>
<g>
  <rect x="374" y="421" width="152" height="34" rx="17" fill="#1fb7a6" stroke="none" stroke-width="1" opacity="1"/>
  <text x="450" y="444" fill="#081816" font-family="Inter, ui-sans-serif, system-ui, -apple-system, BlinkMacSystemFont, Segoe UI, sans-serif" font-size="16" font-weight="700" text-anchor="middle">workbench</text>
</g>
<g>
  <rect x="542" y="421" width="158" height="34" rx="17" fill="#f4ff5b" stroke="#14130f" stroke-width="1" opacity="1"/>
  <text x="621" y="444" fill="#14130f" font-family="Inter, ui-sans-serif, system-ui, -apple-system, BlinkMacSystemFont, Segoe UI, sans-serif" font-size="16" font-weight="700" text-anchor="middle">tee space</text>
</g>
<g>
  <rect x="716" y="421" width="130" height="34" rx="17" fill="#ff8d3a" stroke="none" stroke-width="1" opacity="1"/>
  <text x="781" y="444" fill="#14130f" font-family="Inter, ui-sans-serif, system-ui, -apple-system, BlinkMacSystemFont, Segoe UI, sans-serif" font-size="16" font-weight="700" text-anchor="middle">browser</text>
</g>
<text x="84" y="505" fill="#14130f" font-family="SFMono-Regular, ui-monospace, Consolas, Liberation Mono, monospace" font-size="22" font-weight="850" text-anchor="start">assurance</text>
<g>
  <rect x="230" y="490" width="372" height="18" rx="9" fill="#1fb7a6" stroke="none" stroke-width="1" opacity="1"/>
  <rect x="602" y="490" width="93" height="18" rx="0" fill="#f4c430" stroke="none" stroke-width="1" opacity="1"/>
  <rect x="695" y="490" width="25" height="18" rx="9" fill="#ff5a5f" stroke="none" stroke-width="1" opacity="1"/>
</g>
<text x="738" y="506" fill="#4e4b42" font-family="Inter, ui-sans-serif, system-ui, -apple-system, BlinkMacSystemFont, Segoe UI, sans-serif" font-size="18" font-weight="700" text-anchor="start">76% attested | 19% managed | 5% participant</text>
<g transform="translate(947 378)">
  <rect x="0" y="0" width="112" height="112" rx="8" fill="#fffdf6" stroke="#14130f" stroke-width="2" opacity="1"/>
  <rect x="11.2" y="11.2" width="19.006" height="2.715" fill="#14130f"/>
  <rect x="32.921" y="11.2" width="2.715" height="2.715" fill="#14130f"/>
  <rect x="41.067" y="11.2" width="16.291" height="2.715" fill="#14130f"/>
  <rect x="60.073" y="11.2" width="2.715" height="2.715" fill="#14130f"/>
  <rect x="65.503" y="11.2" width="2.715" height="2.715" fill="#14130f"/>
  <rect x="70.933" y="11.2" width="5.43" height="2.715" fill="#14130f"/>
  <rect x="81.794" y="11.2" width="19.006" height="2.715" fill="#14130f"/>
  <rect x="11.2" y="13.915" width="2.715" height="2.715" fill="#14130f"/>
  <rect x="27.491" y="13.915" width="2.715" height="2.715" fill="#14130f"/>
  <rect x="38.352" y="13.915" width="5.43" height="2.715" fill="#14130f"/>
  <rect x="46.497" y="13.915" width="5.43" height="2.715" fill="#14130f"/>
  <rect x="54.642" y="13.915" width="2.715" height="2.715" fill="#14130f"/>
  <rect x="60.073" y="13.915" width="5.43" height="2.715" fill="#14130f"/>
  <rect x="81.794" y="13.915" width="2.715" height="2.715" fill="#14130f"/>
  <rect x="98.085" y="13.915" width="2.715" height="2.715" fill="#14130f"/>
  <rect x="11.2" y="16.63" width="2.715" height="2.715" fill="#14130f"/>
  <rect x="16.63" y="16.63" width="8.145" height="2.715" fill="#14130f"/>
  <rect x="27.491" y="16.63" width="2.715" height="2.715" fill="#14130f"/>
  <rect x="35.636" y="16.63" width="8.145" height="2.715" fill="#14130f"/>
  <rect x="49.212" y="16.63" width="2.715" height="2.715" fill="#14130f"/>
  <rect x="57.358" y="16.63" width="5.43" height="2.715" fill="#14130f"/>
  <rect x="65.503" y="16.63" width="5.43" height="2.715" fill="#14130f"/>
  <rect x="73.648" y="16.63" width="2.715" height="2.715" fill="#14130f"/>
  <rect x="81.794" y="16.63" width="2.715" height="2.715" fill="#14130f"/>
  <rect x="87.224" y="16.63" width="8.145" height="2.715" fill="#14130f"/>
  <rect x="98.085" y="16.63" width="2.715" height="2.715" fill="#14130f"/>
  <rect x="11.2" y="19.345" width="2.715" height="2.715" fill="#14130f"/>
  <rect x="16.63" y="19.345" width="8.145" height="2.715" fill="#14130f"/>
  <rect x="27.491" y="19.345" width="2.715" height="2.715" fill="#14130f"/>
  <rect x="32.921" y="19.345" width="5.43" height="2.715" fill="#14130f"/>
  <rect x="54.642" y="19.345" width="5.43" height="2.715" fill="#14130f"/>
  <rect x="68.218" y="19.345" width="8.145" height="2.715" fill="#14130f"/>
  <rect x="81.794" y="19.345" width="2.715" height="2.715" fill="#14130f"/>
  <rect x="87.224" y="19.345" width="8.145" height="2.715" fill="#14130f"/>
  <rect x="98.085" y="19.345" width="2.715" height="2.715" fill="#14130f"/>
  <rect x="11.2" y="22.061" width="2.715" height="2.715" fill="#14130f"/>
  <rect x="16.63" y="22.061" width="8.145" height="2.715" fill="#14130f"/>
  <rect x="27.491" y="22.061" width="2.715" height="2.715" fill="#14130f"/>
  <rect x="32.921" y="22.061" width="2.715" height="2.715" fill="#14130f"/>
  <rect x="38.352" y="22.061" width="5.43" height="2.715" fill="#14130f"/>
  <rect x="54.642" y="22.061" width="5.43" height="2.715" fill="#14130f"/>
  <rect x="62.788" y="22.061" width="2.715" height="2.715" fill="#14130f"/>
  <rect x="70.933" y="22.061" width="2.715" height="2.715" fill="#14130f"/>
  <rect x="81.794" y="22.061" width="2.715" height="2.715" fill="#14130f"/>
  <rect x="87.224" y="22.061" width="8.145" height="2.715" fill="#14130f"/>
  <rect x="98.085" y="22.061" width="2.715" height="2.715" fill="#14130f"/>
  <rect x="11.2" y="24.776" width="2.715" height="2.715" fill="#14130f"/>
  <rect x="27.491" y="24.776" width="2.715" height="2.715" fill="#14130f"/>
  <rect x="32.921" y="24.776" width="2.715" height="2.715" fill="#14130f"/>
  <rect x="41.067" y="24.776" width="5.43" height="2.715" fill="#14130f"/>
  <rect x="51.927" y="24.776" width="2.715" height="2.715" fill="#14130f"/>
  <rect x="57.358" y="24.776" width="2.715" height="2.715" fill="#14130f"/>
  <rect x="65.503" y="24.776" width="5.43" height="2.715" fill="#14130f"/>
  <rect x="73.648" y="24.776" width="5.43" height="2.715" fill="#14130f"/>
  <rect x="81.794" y="24.776" width="2.715" height="2.715" fill="#14130f"/>
  <rect x="98.085" y="24.776" width="2.715" height="2.715" fill="#14130f"/>
  <rect x="11.2" y="27.491" width="19.006" height="2.715" fill="#14130f"/>
  <rect x="32.921" y="27.491" width="2.715" height="2.715" fill="#14130f"/>
  <rect x="38.352" y="27.491" width="2.715" height="2.715" fill="#14130f"/>
  <rect x="43.782" y="27.491" width="2.715" height="2.715" fill="#14130f"/>
  <rect x="49.212" y="27.491" width="2.715" height="2.715" fill="#14130f"/>
  <rect x="54.642" y="27.491" width="2.715" height="2.715" fill="#14130f"/>
  <rect x="60.073" y="27.491" width="2.715" height="2.715" fill="#14130f"/>
  <rect x="65.503" y="27.491" width="2.715" height="2.715" fill="#14130f"/>
  <rect x="70.933" y="27.491" width="2.715" height="2.715" fill="#14130f"/>
  <rect x="76.364" y="27.491" width="2.715" height="2.715" fill="#14130f"/>
  <rect x="81.794" y="27.491" width="19.006" height="2.715" fill="#14130f"/>
  <rect x="32.921" y="30.206" width="5.43" height="2.715" fill="#14130f"/>
  <rect x="41.067" y="30.206" width="5.43" height="2.715" fill="#14130f"/>
  <rect x="57.358" y="30.206" width="16.291" height="2.715" fill="#14130f"/>
  <rect x="76.364" y="30.206" width="2.715" height="2.715" fill="#14130f"/>
  <rect x="11.2" y="32.921" width="2.715" height="2.715" fill="#14130f"/>
  <rect x="22.061" y="32.921" width="2.715" height="2.715" fill="#14130f"/>
  <rect x="27.491" y="32.921" width="13.576" height="2.715" fill="#14130f"/>
  <rect x="51.927" y="32.921" width="2.715" height="2.715" fill="#14130f"/>
  <rect x="57.358" y="32.921" width="2.715" height="2.715" fill="#14130f"/>
  <rect x="65.503" y="32.921" width="27.152" height="2.715" fill="#14130f"/>
  <rect x="98.085" y="32.921" width="2.715" height="2.715" fill="#14130f"/>
  <rect x="11.2" y="35.636" width="10.861" height="2.715" fill="#14130f"/>
  <rect x="24.776" y="35.636" width="2.715" height="2.715" fill="#14130f"/>
  <rect x="30.206" y="35.636" width="2.715" height="2.715" fill="#14130f"/>
  <rect x="38.352" y="35.636" width="5.43" height="2.715" fill="#14130f"/>
  <rect x="49.212" y="35.636" width="5.43" height="2.715" fill="#14130f"/>
  <rect x="57.358" y="35.636" width="5.43" height="2.715" fill="#14130f"/>
  <rect x="68.218" y="35.636" width="2.715" height="2.715" fill="#14130f"/>
  <rect x="73.648" y="35.636" width="2.715" height="2.715" fill="#14130f"/>
  <rect x="79.079" y="35.636" width="2.715" height="2.715" fill="#14130f"/>
  <rect x="89.939" y="35.636" width="8.145" height="2.715" fill="#14130f"/>
  <rect x="11.2" y="38.352" width="2.715" height="2.715" fill="#14130f"/>
  <rect x="16.63" y="38.352" width="2.715" height="2.715" fill="#14130f"/>
  <rect x="22.061" y="38.352" width="2.715" height="2.715" fill="#14130f"/>
  <rect x="27.491" y="38.352" width="8.145" height="2.715" fill="#14130f"/>
  <rect x="38.352" y="38.352" width="19.006" height="2.715" fill="#14130f"/>
  <rect x="60.073" y="38.352" width="2.715" height="2.715" fill="#14130f"/>
  <rect x="65.503" y="38.352" width="2.715" height="2.715" fill="#14130f"/>
  <rect x="73.648" y="38.352" width="10.861" height="2.715" fill="#14130f"/>
  <rect x="89.939" y="38.352" width="2.715" height="2.715" fill="#14130f"/>
  <rect x="16.63" y="41.067" width="8.145" height="2.715" fill="#14130f"/>
  <rect x="30.206" y="41.067" width="5.43" height="2.715" fill="#14130f"/>
  <rect x="38.352" y="41.067" width="2.715" height="2.715" fill="#14130f"/>
  <rect x="46.497" y="41.067" width="2.715" height="2.715" fill="#14130f"/>
  <rect x="51.927" y="41.067" width="5.43" height="2.715" fill="#14130f"/>
  <rect x="62.788" y="41.067" width="5.43" height="2.715" fill="#14130f"/>
  <rect x="70.933" y="41.067" width="2.715" height="2.715" fill="#14130f"/>
  <rect x="79.079" y="41.067" width="2.715" height="2.715" fill="#14130f"/>
  <rect x="98.085" y="41.067" width="2.715" height="2.715" fill="#14130f"/>
  <rect x="11.2" y="43.782" width="2.715" height="2.715" fill="#14130f"/>
  <rect x="16.63" y="43.782" width="2.715" height="2.715" fill="#14130f"/>
  <rect x="27.491" y="43.782" width="2.715" height="2.715" fill="#14130f"/>
  <rect x="35.636" y="43.782" width="2.715" height="2.715" fill="#14130f"/>
  <rect x="41.067" y="43.782" width="8.145" height="2.715" fill="#14130f"/>
  <rect x="51.927" y="43.782" width="5.43" height="2.715" fill="#14130f"/>
  <rect x="70.933" y="43.782" width="2.715" height="2.715" fill="#14130f"/>
  <rect x="76.364" y="43.782" width="2.715" height="2.715" fill="#14130f"/>
  <rect x="81.794" y="43.782" width="2.715" height="2.715" fill="#14130f"/>
  <rect x="87.224" y="43.782" width="5.43" height="2.715" fill="#14130f"/>
  <rect x="11.2" y="46.497" width="5.43" height="2.715" fill="#14130f"/>
  <rect x="19.345" y="46.497" width="2.715" height="2.715" fill="#14130f"/>
  <rect x="30.206" y="46.497" width="2.715" height="2.715" fill="#14130f"/>
  <rect x="46.497" y="46.497" width="5.43" height="2.715" fill="#14130f"/>
  <rect x="57.358" y="46.497" width="10.861" height="2.715" fill="#14130f"/>
  <rect x="76.364" y="46.497" width="5.43" height="2.715" fill="#14130f"/>
  <rect x="89.939" y="46.497" width="2.715" height="2.715" fill="#14130f"/>
  <rect x="11.2" y="49.212" width="5.43" height="2.715" fill="#14130f"/>
  <rect x="27.491" y="49.212" width="5.43" height="2.715" fill="#14130f"/>
  <rect x="38.352" y="49.212" width="8.145" height="2.715" fill="#14130f"/>
  <rect x="51.927" y="49.212" width="2.715" height="2.715" fill="#14130f"/>
  <rect x="57.358" y="49.212" width="2.715" height="2.715" fill="#14130f"/>
  <rect x="65.503" y="49.212" width="5.43" height="2.715" fill="#14130f"/>
  <rect x="73.648" y="49.212" width="2.715" height="2.715" fill="#14130f"/>
  <rect x="79.079" y="49.212" width="5.43" height="2.715" fill="#14130f"/>
  <rect x="87.224" y="49.212" width="2.715" height="2.715" fill="#14130f"/>
  <rect x="95.37" y="49.212" width="2.715" height="2.715" fill="#14130f"/>
  <rect x="11.2" y="51.927" width="13.576" height="2.715" fill="#14130f"/>
  <rect x="30.206" y="51.927" width="5.43" height="2.715" fill="#14130f"/>
  <rect x="41.067" y="51.927" width="2.715" height="2.715" fill="#14130f"/>
  <rect x="46.497" y="51.927" width="13.576" height="2.715" fill="#14130f"/>
  <rect x="68.218" y="51.927" width="5.43" height="2.715" fill="#14130f"/>
  <rect x="79.079" y="51.927" width="5.43" height="2.715" fill="#14130f"/>
  <rect x="87.224" y="51.927" width="2.715" height="2.715" fill="#14130f"/>
  <rect x="11.2" y="54.642" width="2.715" height="2.715" fill="#14130f"/>
  <rect x="22.061" y="54.642" width="8.145" height="2.715" fill="#14130f"/>
  <rect x="32.921" y="54.642" width="5.43" height="2.715" fill="#14130f"/>
  <rect x="49.212" y="54.642" width="2.715" height="2.715" fill="#14130f"/>
  <rect x="54.642" y="54.642" width="5.43" height="2.715" fill="#14130f"/>
  <rect x="62.788" y="54.642" width="8.145" height="2.715" fill="#14130f"/>
  <rect x="76.364" y="54.642" width="2.715" height="2.715" fill="#14130f"/>
  <rect x="81.794" y="54.642" width="2.715" height="2.715" fill="#14130f"/>
  <rect x="87.224" y="54.642" width="2.715" height="2.715" fill="#14130f"/>
  <rect x="95.37" y="54.642" width="2.715" height="2.715" fill="#14130f"/>
  <rect x="13.915" y="57.358" width="5.43" height="2.715" fill="#14130f"/>
  <rect x="22.061" y="57.358" width="2.715" height="2.715" fill="#14130f"/>
  <rect x="30.206" y="57.358" width="10.861" height="2.715" fill="#14130f"/>
  <rect x="51.927" y="57.358" width="5.43" height="2.715" fill="#14130f"/>
  <rect x="60.073" y="57.358" width="2.715" height="2.715" fill="#14130f"/>
  <rect x="65.503" y="57.358" width="2.715" height="2.715" fill="#14130f"/>
  <rect x="73.648" y="57.358" width="2.715" height="2.715" fill="#14130f"/>
  <rect x="89.939" y="57.358" width="8.145" height="2.715" fill="#14130f"/>
  <rect x="13.915" y="60.073" width="2.715" height="2.715" fill="#14130f"/>
  <rect x="22.061" y="60.073" width="10.861" height="2.715" fill="#14130f"/>
  <rect x="35.636" y="60.073" width="8.145" height="2.715" fill="#14130f"/>
  <rect x="51.927" y="60.073" width="8.145" height="2.715" fill="#14130f"/>
  <rect x="68.218" y="60.073" width="8.145" height="2.715" fill="#14130f"/>
  <rect x="84.509" y="60.073" width="2.715" height="2.715" fill="#14130f"/>
  <rect x="89.939" y="60.073" width="2.715" height="2.715" fill="#14130f"/>
  <rect x="95.37" y="60.073" width="2.715" height="2.715" fill="#14130f"/>
  <rect x="19.345" y="62.788" width="8.145" height="2.715" fill="#14130f"/>
  <rect x="32.921" y="62.788" width="13.576" height="2.715" fill="#14130f"/>
  <rect x="49.212" y="62.788" width="5.43" height="2.715" fill="#14130f"/>
  <rect x="57.358" y="62.788" width="13.576" height="2.715" fill="#14130f"/>
  <rect x="76.364" y="62.788" width="10.861" height="2.715" fill="#14130f"/>
  <rect x="95.37" y="62.788" width="5.43" height="2.715" fill="#14130f"/>
  <rect x="11.2" y="65.503" width="2.715" height="2.715" fill="#14130f"/>
  <rect x="16.63" y="65.503" width="2.715" height="2.715" fill="#14130f"/>
  <rect x="27.491" y="65.503" width="2.715" height="2.715" fill="#14130f"/>
  <rect x="32.921" y="65.503" width="2.715" height="2.715" fill="#14130f"/>
  <rect x="38.352" y="65.503" width="2.715" height="2.715" fill="#14130f"/>
  <rect x="43.782" y="65.503" width="5.43" height="2.715" fill="#14130f"/>
  <rect x="60.073" y="65.503" width="8.145" height="2.715" fill="#14130f"/>
  <rect x="73.648" y="65.503" width="5.43" height="2.715" fill="#14130f"/>
  <rect x="81.794" y="65.503" width="2.715" height="2.715" fill="#14130f"/>
  <rect x="87.224" y="65.503" width="5.43" height="2.715" fill="#14130f"/>
  <rect x="11.2" y="68.218" width="2.715" height="2.715" fill="#14130f"/>
  <rect x="16.63" y="68.218" width="2.715" height="2.715" fill="#14130f"/>
  <rect x="22.061" y="68.218" width="2.715" height="2.715" fill="#14130f"/>
  <rect x="32.921" y="68.218" width="8.145" height="2.715" fill="#14130f"/>
  <rect x="43.782" y="68.218" width="5.43" height="2.715" fill="#14130f"/>
  <rect x="54.642" y="68.218" width="2.715" height="2.715" fill="#14130f"/>
  <rect x="62.788" y="68.218" width="2.715" height="2.715" fill="#14130f"/>
  <rect x="68.218" y="68.218" width="8.145" height="2.715" fill="#14130f"/>
  <rect x="79.079" y="68.218" width="2.715" height="2.715" fill="#14130f"/>
  <rect x="84.509" y="68.218" width="2.715" height="2.715" fill="#14130f"/>
  <rect x="92.655" y="68.218" width="5.43" height="2.715" fill="#14130f"/>
  <rect x="27.491" y="70.933" width="2.715" height="2.715" fill="#14130f"/>
  <rect x="41.067" y="70.933" width="5.43" height="2.715" fill="#14130f"/>
  <rect x="54.642" y="70.933" width="5.43" height="2.715" fill="#14130f"/>
  <rect x="62.788" y="70.933" width="2.715" height="2.715" fill="#14130f"/>
  <rect x="73.648" y="70.933" width="5.43" height="2.715" fill="#14130f"/>
  <rect x="84.509" y="70.933" width="13.576" height="2.715" fill="#14130f"/>
  <rect x="16.63" y="73.648" width="5.43" height="2.715" fill="#14130f"/>
  <rect x="30.206" y="73.648" width="2.715" height="2.715" fill="#14130f"/>
  <rect x="43.782" y="73.648" width="5.43" height="2.715" fill="#14130f"/>
  <rect x="57.358" y="73.648" width="21.721" height="2.715" fill="#14130f"/>
  <rect x="81.794" y="73.648" width="2.715" height="2.715" fill="#14130f"/>
  <rect x="87.224" y="73.648" width="2.715" height="2.715" fill="#14130f"/>
  <rect x="95.37" y="73.648" width="5.43" height="2.715" fill="#14130f"/>
  <rect x="11.2" y="76.364" width="5.43" height="2.715" fill="#14130f"/>
  <rect x="19.345" y="76.364" width="2.715" height="2.715" fill="#14130f"/>
  <rect x="24.776" y="76.364" width="19.006" height="2.715" fill="#14130f"/>
  <rect x="46.497" y="76.364" width="2.715" height="2.715" fill="#14130f"/>
  <rect x="51.927" y="76.364" width="8.145" height="2.715" fill="#14130f"/>
  <rect x="68.218" y="76.364" width="5.43" height="2.715" fill="#14130f"/>
  <rect x="76.364" y="76.364" width="16.291" height="2.715" fill="#14130f"/>
  <rect x="95.37" y="76.364" width="2.715" height="2.715" fill="#14130f"/>
  <rect x="32.921" y="79.079" width="2.715" height="2.715" fill="#14130f"/>
  <rect x="38.352" y="79.079" width="24.436" height="2.715" fill="#14130f"/>
  <rect x="68.218" y="79.079" width="2.715" height="2.715" fill="#14130f"/>
  <rect x="76.364" y="79.079" width="2.715" height="2.715" fill="#14130f"/>
  <rect x="87.224" y="79.079" width="2.715" height="2.715" fill="#14130f"/>
  <rect x="92.655" y="79.079" width="5.43" height="2.715" fill="#14130f"/>
  <rect x="11.2" y="81.794" width="19.006" height="2.715" fill="#14130f"/>
  <rect x="32.921" y="81.794" width="2.715" height="2.715" fill="#14130f"/>
  <rect x="46.497" y="81.794" width="2.715" height="2.715" fill="#14130f"/>
  <rect x="51.927" y="81.794" width="2.715" height="2.715" fill="#14130f"/>
  <rect x="60.073" y="81.794" width="2.715" height="2.715" fill="#14130f"/>
  <rect x="65.503" y="81.794" width="2.715" height="2.715" fill="#14130f"/>
  <rect x="76.364" y="81.794" width="2.715" height="2.715" fill="#14130f"/>
  <rect x="81.794" y="81.794" width="2.715" height="2.715" fill="#14130f"/>
  <rect x="87.224" y="81.794" width="5.43" height="2.715" fill="#14130f"/>
  <rect x="95.37" y="81.794" width="2.715" height="2.715" fill="#14130f"/>
  <rect x="11.2" y="84.509" width="2.715" height="2.715" fill="#14130f"/>
  <rect x="27.491" y="84.509" width="2.715" height="2.715" fill="#14130f"/>
  <rect x="35.636" y="84.509" width="2.715" height="2.715" fill="#14130f"/>
  <rect x="43.782" y="84.509" width="2.715" height="2.715" fill="#14130f"/>
  <rect x="54.642" y="84.509" width="2.715" height="2.715" fill="#14130f"/>
  <rect x="65.503" y="84.509" width="2.715" height="2.715" fill="#14130f"/>
  <rect x="70.933" y="84.509" width="2.715" height="2.715" fill="#14130f"/>
  <rect x="76.364" y="84.509" width="2.715" height="2.715" fill="#14130f"/>
  <rect x="87.224" y="84.509" width="2.715" height="2.715" fill="#14130f"/>
  <rect x="95.37" y="84.509" width="2.715" height="2.715" fill="#14130f"/>
  <rect x="11.2" y="87.224" width="2.715" height="2.715" fill="#14130f"/>
  <rect x="16.63" y="87.224" width="8.145" height="2.715" fill="#14130f"/>
  <rect x="27.491" y="87.224" width="2.715" height="2.715" fill="#14130f"/>
  <rect x="32.921" y="87.224" width="2.715" height="2.715" fill="#14130f"/>
  <rect x="46.497" y="87.224" width="10.861" height="2.715" fill="#14130f"/>
  <rect x="62.788" y="87.224" width="2.715" height="2.715" fill="#14130f"/>
  <rect x="70.933" y="87.224" width="2.715" height="2.715" fill="#14130f"/>
  <rect x="76.364" y="87.224" width="16.291" height="2.715" fill="#14130f"/>
  <rect x="98.085" y="87.224" width="2.715" height="2.715" fill="#14130f"/>
  <rect x="11.2" y="89.939" width="2.715" height="2.715" fill="#14130f"/>
  <rect x="16.63" y="89.939" width="8.145" height="2.715" fill="#14130f"/>
  <rect x="27.491" y="89.939" width="2.715" height="2.715" fill="#14130f"/>
  <rect x="35.636" y="89.939" width="2.715" height="2.715" fill="#14130f"/>
  <rect x="49.212" y="89.939" width="2.715" height="2.715" fill="#14130f"/>
  <rect x="60.073" y="89.939" width="8.145" height="2.715" fill="#14130f"/>
  <rect x="73.648" y="89.939" width="5.43" height="2.715" fill="#14130f"/>
  <rect x="81.794" y="89.939" width="8.145" height="2.715" fill="#14130f"/>
  <rect x="95.37" y="89.939" width="2.715" height="2.715" fill="#14130f"/>
  <rect x="11.2" y="92.655" width="2.715" height="2.715" fill="#14130f"/>
  <rect x="16.63" y="92.655" width="8.145" height="2.715" fill="#14130f"/>
  <rect x="27.491" y="92.655" width="2.715" height="2.715" fill="#14130f"/>
  <rect x="35.636" y="92.655" width="5.43" height="2.715" fill="#14130f"/>
  <rect x="51.927" y="92.655" width="2.715" height="2.715" fill="#14130f"/>
  <rect x="65.503" y="92.655" width="5.43" height="2.715" fill="#14130f"/>
  <rect x="79.079" y="92.655" width="10.861" height="2.715" fill="#14130f"/>
  <rect x="11.2" y="95.37" width="2.715" height="2.715" fill="#14130f"/>
  <rect x="27.491" y="95.37" width="2.715" height="2.715" fill="#14130f"/>
  <rect x="35.636" y="95.37" width="2.715" height="2.715" fill="#14130f"/>
  <rect x="41.067" y="95.37" width="2.715" height="2.715" fill="#14130f"/>
  <rect x="46.497" y="95.37" width="2.715" height="2.715" fill="#14130f"/>
  <rect x="51.927" y="95.37" width="10.861" height="2.715" fill="#14130f"/>
  <rect x="68.218" y="95.37" width="5.43" height="2.715" fill="#14130f"/>
  <rect x="76.364" y="95.37" width="8.145" height="2.715" fill="#14130f"/>
  <rect x="11.2" y="98.085" width="19.006" height="2.715" fill="#14130f"/>
  <rect x="32.921" y="98.085" width="2.715" height="2.715" fill="#14130f"/>
  <rect x="43.782" y="98.085" width="8.145" height="2.715" fill="#14130f"/>
  <rect x="57.358" y="98.085" width="2.715" height="2.715" fill="#14130f"/>
  <rect x="62.788" y="98.085" width="21.721" height="2.715" fill="#14130f"/>
  <rect x="89.939" y="98.085" width="2.715" height="2.715" fill="#14130f"/>
  <rect x="98.085" y="98.085" width="2.715" height="2.715" fill="#14130f"/>
</g>
<text x="1003" y="523" fill="#14130f" font-family="SFMono-Regular, ui-monospace, Consolas, Liberation Mono, monospace" font-size="17" font-weight="850" text-anchor="middle">scan receipt</text>
<line x1="64" y1="562" x2="1136" y2="562" stroke="#14130f" stroke-width="2" opacity="1"/>
<text x="78" y="580" fill="#4e4b42" font-family="SFMono-Regular, ui-monospace, Consolas, Liberation Mono, monospace" font-size="16" font-weight="650" text-anchor="start">event log root 9b7c...20af | latest quote 43s ago | prize policy min-tokens</text>

</svg>
